<?xml version="1.0" encoding="UTF-8"?>
<svg viewBox="0 0 793.7 1122.5" xmlns="http://www.w3.org/2000/svg" xmlns:xlink="http://www.w3.org/1999/xlink">
 <defs>
  <linearGradient id="ak" x1=".0965" x2=".74776" y1=".018519" y2=".97531" xlink:href="#ac"/>
  <linearGradient id="bc" x1=".40282" x2=".41491" y1=".98731" y2=".01269" xlink:href="#af"/>
  <linearGradient id="aj" x1=".40317" x2=".61498" y1=".034484" y2=".96552" xlink:href="#ac"/>
  <linearGradient id="bd" x1=".50403" x2=".53243" y1=".98333" y2=".016667" xlink:href="#af"/>
  <linearGradient id="ar" x1=".42369" x2=".42188" y1="-.003144" y2="1.0067" xlink:href="#ae"/>
  <linearGradient id="al" x1=".85316" x2=".036826" y1=".99034" y2=".005398" xlink:href="#ad"/>
  <linearGradient id="aq" x1=".42985" x2=".42768" y1=".010638" y2="1" xlink:href="#ae"/>
  <linearGradient id="am" x1=".78405" x2=".17726" y1=".9728" y2=".078421" xlink:href="#ad"/>
  <linearGradient id="ap" x1=".58664" x2=".58808" y1=".10081" y2=".90806" xlink:href="#ae"/>
  <linearGradient id="an" x1=".19746" x2=".83812" y1="-.008982" y2=".87724" xlink:href="#ad"/>
  <linearGradient id="ao" x1=".1542" x2=".86831" y1=".058376" y2=".97208" xlink:href="#ad"/>
  <linearGradient id="ai" x1=".005099" x2="1.003" y1=".78598" y2=".16421">
   <stop stop-color="#000080" offset="0"/>
   <stop stop-color="#00004b" offset=".27246"/>
   <stop stop-color="#000080" offset=".31072"/>
   <stop stop-color="#0000c1" offset=".3484"/>
   <stop stop-color="#000080" offset=".4086"/>
   <stop stop-color="#0000ea" offset="1"/>
  </linearGradient>
  <linearGradient id="ah">
   <stop stop-color="#fff" offset="0"/>
   <stop stop-color="#9c9c9c" offset="1"/>
  </linearGradient>
  <linearGradient id="ag">
   <stop stop-color="#959595" offset="0"/>
   <stop stop-color="#1a1a1a" offset="1"/>
  </linearGradient>
  <linearGradient id="ae">
   <stop stop-color="#00f800" offset="0"/>
   <stop stop-color="#008000" offset="1"/>
  </linearGradient>
  <linearGradient id="af">
   <stop stop-color="#c2ffff" stop-opacity=".5" offset="0"/>
   <stop stop-color="#fff" stop-opacity=".5" offset="1"/>
  </linearGradient>
  <linearGradient id="ad">
   <stop stop-color="#ffeca3" offset="0"/>
   <stop stop-color="#ffd42a" offset="1"/>
  </linearGradient>
  <linearGradient id="ac">
   <stop stop-color="#edd1be" offset="0"/>
   <stop stop-color="#deaa87" offset="1"/>
  </linearGradient>
  <radialGradient id="bb" cx="345.06" cy="745.27" r="41.863" gradientTransform="matrix(1 0 0 .48751 0 382.98)" gradientUnits="userSpaceOnUse" xlink:href="#ah"/>
  <radialGradient id="ay" cx="407.38" cy="778.56" r="87.08" gradientTransform="matrix(1.0396 0 0 .26586 -16.137 565.86)" gradientUnits="userSpaceOnUse" xlink:href="#ag"/>
  <radialGradient id="at" cx="488.68" cy="433.85" r="33.507" gradientTransform="matrix(2.1067 -.072969 .045311 1.3082 -557.31 -108.84)" gradientUnits="userSpaceOnUse" xlink:href="#ac"/>
  <radialGradient id="au" cx="348.2" cy="363.97" r="101.35" gradientTransform="matrix(1 0 0 1.0362 0 -14.863)" gradientUnits="userSpaceOnUse" xlink:href="#ac"/>
  <radialGradient id="ba" cx="431.34" cy="760.31" r="77.061" gradientTransform="matrix(1.2584 -.11998 .028339 .29723 -133.02 582.74)" gradientUnits="userSpaceOnUse" xlink:href="#ah"/>
  <radialGradient id="av" cx="249.24" cy="602.61" r="133.25" gradientTransform="matrix(.73045 -.011808 .0047332 .2928 64.329 365.79)" gradientUnits="userSpaceOnUse">
   <stop stop-color="#a5a5a5" offset="0"/>
   <stop stop-color="#f2f2f2" offset="1"/>
  </radialGradient>
  <radialGradient id="aw" cx="463.34" cy="668.36" r="78.125" gradientTransform="matrix(1 0 0 1.0794 0 -48.588)" gradientUnits="userSpaceOnUse">
   <stop stop-color="#acacff" offset="0"/>
   <stop stop-color="#2c2cff" offset="1"/>
  </radialGradient>
  <radialGradient id="az" cx="324.02" cy="764.39" r="34.764" gradientTransform="matrix(1 0 0 .57003 0 328.49)" gradientUnits="userSpaceOnUse" xlink:href="#ag"/>
  <radialGradient id="ax" cx="486.88" cy="549.67" r="44.12" gradientTransform="matrix(1.2463 -.72532 1.1466 1.9701 -752.01 -189.97)" gradientUnits="userSpaceOnUse">
   <stop stop-color="#fff5cc" offset="0"/>
   <stop stop-color="#ffd42a" offset="1"/>
  </radialGradient>
  <radialGradient id="as" cx="416.17" cy="253.38" r="157.9" gradientTransform="matrix(1.0947 .36396 -.26505 .79716 34.573 -76.94)" gradientUnits="userSpaceOnUse">
   <stop stop-color="#dedede" offset="0"/>
   <stop offset="1"/>
  </radialGradient>
 </defs>
 <g transform="translate(-279 93)">
  <path d="m816.08 724.96c0.54388-1.0878 8.7024-12.238 9.2463-13.326 0.54388-1.0878 0-14.413 0-14.413s-10.878-14.141-10.878-15.229c0-1.0878-1.0878-5.167 0-5.7109 1.0878-0.54388 16.045-8.4304 17.133-8.4304 1.0878 0 7.0707-0.54394 7.0707-0.54394l0.8159 5.7109 13.598-0.8159 0.8159 4.3513 18.221-1.6317 2.7195 3.2634h10.606l15.229 8.1585 12.51-1.6317 13.869-4.6231 20.396-3.2634-0.5439 7.0707 10.878-1.6317 1.6317 2.7195s6.2356 7.2184 8.3317 18.356c1.2637 6.7147 27.324 14.766 27.342 27.935-2.1161 12.303-61.235 5.9558-85.713 10.003-0.81586 2.7195-8.7024 1.3597-9.7902 1.3597s-50.311-13.326-50.311-13.326l-33.178-4.3512z" fill="url(#ar)"/>
  <path d="m464.72 732.57l-10.287 0.4269s-10.127-3.4305-20.436 0.18835c5.4534 22.622 30.179 25.056 33.17 23.044 3.2634-2.4476 2.9914 3.8073 6.2548 2.9914 3.2634-0.81586 12.51-5.7109 14.141-3.5353 1.6317 2.1756 0 5.439 0 5.439s8.4304-5.9828 11.966-5.7109c3.5353 0.27197 2.1756 6.5268 2.1756 6.5268s6.5268-5.9829 11.15-5.439c4.6231 0.54388 4.0792 5.9828 4.0792 5.9828s2.7195-4.8951 9.5182-4.3512c6.7987 0.54394 8.7024 6.7988 8.7024 6.7988s8.9743-7.6146 15.501-6.5268c6.5268 1.0878 7.6146 7.6146 7.6146 7.6146s7.3426-3.5353 13.326-3.5353c5.9828 0 12.51 7.6146 12.51 7.6146s10.606-5.439 19.58-5.439c8.9744 0 13.326 5.167 13.326 5.167s12.782-5.439 17.949-2.9914 19.036 2.9914 22.844 0.81586c3.8073-2.1756 14.685-5.7109 17.677-1.9036 2.9914 3.8072 11.422 3.8072 16.045 1.3597 4.6232-2.4476 7.6146-4.6232 12.51-1.9036 4.8951 2.7195 5.9828 1.9036 10.606 0.8158 4.6231-1.0878 8.1584-9.2463 10.878-8.4304 2.7195 0.81586 0.27197 8.1585 0.27197 8.1585l12.238 1.0878 14.141-2.9915s6.5267 6.7988 12.238 5.7109c5.711-1.0878 12.51-6.2548 19.58-5.7109 7.0707 0.54394 10.878 7.0707 17.677 5.167 6.7988-1.9036 8.7024-5.167 17.133-6.5268 8.4305-1.3597 9.2463 4.8951 13.598 5.167 4.3511 0.27197 10.878-2.1756 15.773-3.5353 4.8951-1.3597 10.878 0.81586 16.045 1.9036 5.167 1.0878 11.15 1.0878 17.677-0.8158 6.5268-1.9037 13.598-1.6317 16.045-5.711 2.4476-4.0792-2.1756-8.4304 1.6317-11.422 3.8072-2.9914 7.0707-5.167 1.3597-7.8865-5.7109-2.7195-9.5182-5.439-12.238-9.5182-2.7195-4.0793-3.5353-3.2634-10.062-1.6317-6.5268 1.6317-10.062 1.9036-12.238 1.9036-2.1756 0-16.045-2.4475-17.405-2.4475-1.3597 0-29.37-1.9037-29.37-1.9037s-0.27191-2.4475-3.2634-2.9914c-2.9914-0.54388-8.9744 2.4476-11.422 2.7195-2.4476 0.27191-4.8951 0.54388-4.8951 0.54388l5.9829-7.0707s-3.2634-0.81586-4.3512-0.81586-16.589 6.2548-16.589 6.2548l0.8158-5.7109-8.4304 2.1756-13.326 7.8865s4.6232-10.334 3.5354-10.334-7.0707 4.3511-7.0707 4.3511l-12.782 11.15s-4.6232 0.27197-5.167-0.81586c-0.54394-1.0878-8.4305-6.7987-9.5182-6.7987-1.0878 0-2.7195 0.54388-2.7195 0.54388l3.8073 10.606-14.413-7.3427 0.5439 4.0793h-26.651c-2.1755 0-28.011-3.2634-29.099-3.5353-1.0878-0.27197-12.51-6.5268-12.51-6.5268s-11.422 1.0878-13.598 0.8158c-2.1757-0.27191-11.422-2.1756-12.51-2.4475-1.0878-0.27197-10.606-4.0792-10.606-4.0792l1.6317 5.7109 0.5439 2.4475-10.606-5.1671-3.5353-1.0878-0.272 5.9829s-30.73 0-31.818 0.27191c-1.0878 0.27197-25.019 1.9037-25.019 1.9037s-15.501-0.27197-15.773-1.3597c-0.27197-1.0878 0.54388-4.0793-0.81586-4.0793s-14.413 2.9914-14.413 2.9914 2.4476-5.9829 1.3598-6.2548c-1.0878-0.27197-6.5268 0-6.5268 0l-13.869 7.8865s-13.054 2.1756-14.413 2.4475c-1.3597 0.27197-17.133 1.6317-17.133 1.6317z" fill="url(#aq)"/>
  <path d="m612.66 685.52l-13.598-1.6317-8.1585 1.0878-4.3512-3.5353-13.054 4.3512-12.51-0.5439-7.8865 0.5439-3.2634-1.0878-12.782 3.5353 1.9037-7.0707-12.51 3.2634-12.238 3.8073-6.2548-2.9915-7.3427 3.2634-1.9036-2.7195-15.501 4.3511 2.9915-5.9828-2.1756-1.9036-16.589 7.8865 5.439-9.2463s-2.7195-2.1756-4.8951-1.3597c-2.1756 0.81586-12.238 5.9829-12.238 5.9829s-2.9914-2.1756-4.3512-2.4476c-1.3598-0.27191-5.167 3.8073-5.167 3.8073l-4.0792 7.0707s1.3123 12.335-6.7744 11.829c-6.5439-0.4093-13.075 10.244-13.075 10.244-18.974 14.788 8.5951 16.968 20.26 18.202 0 0 12.1 0.24463 14.547-0.29926 2.4475-0.54394 7.6146-1.9037 7.6146-1.9037l16.589-0.2719 10.062-1.3598 17.133-8.4304 7.0707-0.8159-3.8073 7.0707 17.949-2.9914-0.5439 3.5353 18.764-1.0878-0.5439 3.5353 29.642-1.3597 27.739-1.6317-2.9915-7.3426-16.589-10.606 7.0707-10.062 15.501-11.966 4.8951-2.7195z" fill="url(#ap)"/>
  <path d="m655.06 711.21l-16.446-0.371s-11.624-15.21-12.242-15.457c-0.61829-0.24731-18.672-6.8011-18.672-6.8011l20.651-9.8925 42.785-7.2957 2.1021 6.1828 17.188 5.4409-17.312 8.5322-11.253 10.511-6.8011 9.1506z" fill="url(#bb)"/>
  <path d="m660.13 698.97l-11.624-12.242-13.973-9.8925-12.86 5.1935 9.8925 4.2043 14.962 11.376 3.7097 3.5861 9.8925-2.2258z" fill="url(#ao)"/>
  <path d="m668.54 694.15l-23.371-18.672 12.737-1.9785 18.548 15.457-7.914 5.1935z" fill="url(#an)"/>
  <path d="m814.52 682.23s8.1624 4.6996 9.6465 10.141c1.4841 5.4416 1.2367 12.615 1.2367 12.615l-28.197 8.6571-45.512 6.1836-50.211 2.2261s-1.2368-8.9044-9.1518-16.078c-7.915-7.173-20.035-13.604-20.035-13.604s13.109-9.6465 22.014-11.131c8.9044-1.4841 23.25-4.2049 23.25-4.2049s10.388 6.6784 19.293 8.9045c8.9044 2.2261 33.886 5.4416 42.543 5.9363 8.6571 0.49469 23.498-1.7314 28.197-3.7102 4.6996-1.9788 6.9257-5.9363 6.9257-5.9363z" fill="url(#ba)"/>
  <path d="m696.51 680.79s13.508 8.8726 18.54 13.243c5.0322 4.3701 16.686 17.348 16.686 17.348l-13.375 0.7946s-9.9319-11.389-15.361-14.832c-5.4294-3.443-19.202-10.991-19.202-10.991l12.713-5.5619z" fill="url(#am)"/>
  <path d="m757.16 706.35s-3.8404-6.3564-5.9592-9.0049c-2.1188-2.6486-13.64-11.256-13.64-11.256l-22.91-8.7401-3.5755 1.5891s14.832 9.0049 19.069 12.978c4.2377 3.9728 15.891 13.507 15.891 13.507l11.124 0.927z" fill="url(#al)"/>
  <path d="m656.07 710.52l-4.5993 14.948-20.466 0.6899-15.638-6.8989v2.0696l2.7596 5.979-20.007-7.1288-10.578-8.7385 2.7596-9.4285 19.317-13.338 14.488 5.749 9.4284 8.7385 5.979 8.9685 16.557-1.6097z" fill="url(#az)"/>
  <path d="m825.78 704.54c-0.4599 1.6097-2.5296 11.038-2.5296 11.038l-7.5887 7.8187-14.718 3.2195 5.2891-8.2786-8.7385 2.7596-13.338 5.0591 2.5295-7.5887-9.1985 2.7595-12.648 7.5887 2.2996-10.578-8.5085 5.979-13.108 10.808-11.958-7.5887h-2.5295l2.5295 9.8883-11.728-5.749-4.1393 2.9895-42.313-0.4599s-21.616-6.209-21.616-7.5888-1.1498-8.2786-1.1498-8.2786l12.418-20.237 8.7385-5.979 11.728 7.5887 15.408 17.707 0.9199 4.5992 40.013-1.3798 50.132-5.749 33.804-10.348z" fill="url(#ay)"/>
  <path d="m766.32 583.08l22.672-4.4359 22.919-8.6254s-2.7108-8.8718-2.2179-11.09c0.49286-2.218 7.6396-18.729 7.6396-18.729s-0.73932-28.34-0.73932-29.326c0-0.98578-9.6111-27.601-9.6111-27.601s-15.526-20.701-18.236-21.933c-2.7108-1.2322-17.004-8.3789-17.004-8.3789l-9.1182-1.2322 1.4786-5.6681-6.6539-14.294-27.355 23.658 13.061 12.568 6.4073 4.1895 8.1325 48.795 8.6254 62.102z" fill="url(#ax)"/>
  <path d="m814.78 683.6l-12.892-52.599 11.345-26.042-0.2578-36.098-21.143 8.7665-20.112 4.6411-5.6724 0.2579 4.8989 29.136-8.2509 2.8362-104.17 9.7979 18.822 14.697-3.3519 25.784-1.8049 11.861 14.181 3.8676 17.533-1.8049 15.728-0.5156s25.784 12.118 41.77 12.634c15.986 0.51569 32.746 0.51569 39.965-1.547 7.2195-2.0627 13.408-5.6725 13.408-5.6725z" fill="url(#aw)"/>
  <path d="m746.04 470.92l-11.676-10.842-5.8383-8.0623-12.232 2.2241-5.0042-11.398-47.262 11.676-34.195 4.7262-21.963 5.5602-28.079 6.9503-22.519 10.564-7.5063 5.0042-3.8922-30.025-4.7262-16.681-8.8964-16.681-16.959-19.739-0.834 9.4524-9.1744-9.7304-17.793 7.2283-6.9503 3.8922 27.523 35.307 23.353 30.581 4.4482 5.5602-1.39 5.2822 18.905 3.6141 5.2822-0.278 6.9503-5.2822 70.893-8.0623 59.772-5.0042 49.764-5.8382z" fill="url(#av)"/>
  <path d="m750.46 477.48l-74.76 6.7751-71.255 6.5415-28.502 3.738-11.214 4.9061-14.718 1.1681s-14.251-2.3362-15.186-3.0371c-0.93451-0.70087-7.9432-5.8406-7.9432-5.8406l4.9061-6.0742-34.576-42.987-20.325-26.166-6.3079-7.0087 5.1397 0.2336 8.4105 10.279 24.063 29.904 17.522 23.596 9.5786 12.616-1.4017 3.9716 3.2708 2.1026 15.653 1.869 5.1398 0.4673 3.9716-2.5699 10.046-1.869 55.135-7.2424 92.982-8.8777 28.035-3.5043 2.3362 7.0087z" fill="#4747ff"/>
  <path d="m632.03 626.36l135.69-13.447 2.8524-5.7048-6.9273-40.342-14.262-89.648-39.934 4.0749-68.458 5.7049-55.011 5.7048-17.115 3.2599-4.8899 2.8524-13.447 2.0374-11.817-2.4449-8.1498-2.8525-4.075-4.4824 5.2974-5.2974-19.56-22.004-31.784-41.972-9.7798-12.225-1.6299 6.1124 9.7798 23.634 17.93 36.267 44.416 74.978 11.41 18.337 24.449 32.192 19.967 24.042 9.3723 5.2974h15.892l9.7798-4.0749z" fill="url(#ai)"/>
  <path d="m535.86 540.79l3.6674-6.5198-10.187-10.595 1.6299-7.3348-5.2974-6.5199-6.9273-3.6674 0.8149-4.8899-8.5573-11.41-17.115-15.077-4.0749 12.225 2.8524 12.632 7.7423 8.9648-1.2224 3.6674 5.2974 8.5573 2.4449 5.2974 7.7423 9.3723 13.04 5.2974h8.1498z" fill="url(#ak)"/>
  <path d="m765.69 566.05l6.9273-8.1498s3.26-4.075 1.63-8.1498c-1.63-4.0749-4.075-6.5198-4.075-6.5198v-9.3722l-2.8524-6.1124-2.0375-3.6674 1.63-9.7798-2.445-7.7423-7.3348-6.9274-15.892 2.8525-11.41 6.9273-2.4449 5.7049 2.8524 7.3348 6.5198 5.2974-5.7048 7.3348 2.4449 8.5573 7.7423 6.1124-4.0749 6.1124 1.2225 7.7423 10.595 6.9274 11.002-1.63 5.7049-2.8524z" fill="url(#aj)"/>
  <path d="m763.24 423.84l-21.597 23.227-10.187 8.5573-4.4824-4.0749-11.002 1.63-4.0748-9.7798-20.782 6.1123-60.309 9.7798-28.932-19.56-18.745-22.004-3.2599-12.225 0.815-11.002 4.8898-13.855s4.0749-9.7798 2.8525-19.967c-1.2225-10.187-13.855-35.452-13.855-35.452l-3.2599-20.782 2.0374-26.894 38.712-27.302 57.049 22.82 30.154 8.1498 18.337-1.2225-18.745-23.227 29.747 19.152 39.934 12.632-6.9274 15.892-2.8524 26.894 6.1124 29.339 8.1498 11.41-9.7798 51.751z" fill="url(#au)"/>
  <path d="m645.48 370.46s2.4449-12.632 2.4449-14.262-3.2599-24.857-3.2599-24.857l-9.3723-15.077s-10.187-4.8899-11.817-4.8899c-1.6299 0-23.227 1.63-23.227 1.63l-23.227 12.225-4.8899 10.187-2.4449 18.337 5.2973 15.077 12.632 12.632 13.855 3.2599 15.077-2.0374 6.5198-1.63 0.8149-6.5198 8.5573-4.0749h13.04z" fill="url(#bd)"/>
  <path d="m729.42 362.71l2.0374-13.855-5.7048-22.004-9.3723-14.67-17.522-6.9273-16.707-0.815-17.93 4.4824-9.3723 8.1498-6.1124 19.56 0.4075 18.745 6.1123 14.262 3.2599 5.7049 13.447 6.5198 14.67 2.8524 20.782-4.0749 15.485-11.002 6.5198-6.9273z" fill="url(#bc)" stroke="#000"/>
  <path d="m763.65 425.06s9.7798 12.225 16.3 12.632c6.5198 0.4075 15.892-3.6674 24.042-11.41 8.1498-7.7423 22.004-32.192 22.004-32.192s1.2224-5.7049 1.2224-12.225c0-6.5198-6.9273-24.857-11.41-27.302-4.4824-2.445-16.3-5.7049-23.227-1.6299-6.9273 4.0749-15.892 10.595-21.19 18.744-5.2974 8.1498-10.187 21.597-10.187 28.932 0 7.3348 2.445 24.449 2.445 24.449z" fill="url(#at)"/>
  <path d="m828.43 386.89s25.364-33.57 25.364-64.155c0-30.586-5.222-70.869-23.126-87.281s-43.268-33.57-43.268-33.57 10.444-0.746 17.158-0.746c6.7139 0 20.142 5.222 20.142 5.222s-19.396-16.412-29.84-19.396-34.316-3.73-34.316-3.73 7.4599-7.4599 12.682-10.444c5.2219-2.984 11.19-4.476 11.19-4.476s-19.396-2.984-27.602-1.492c-8.2059 1.492-24.618 8.2059-24.618 8.2059s-53.712-9.6979-74.599-8.9519c-20.888 0.74599-69.377 12.682-82.059 19.396-12.682 6.7139-36.554 32.078-36.554 32.078s13.428-3.73 23.126-6.7139c9.6979-2.984 19.396-3.73 19.396-3.73s-24.618 24.618-28.348 37.3-12.682 27.602-11.19 38.046 2.238 25.364 2.238 25.364 17.904-22.38 29.094-31.332c11.19-8.9519 37.3-27.602 37.3-27.602s41.03 18.65 52.22 21.634 32.824 10.444 40.284 10.444h16.412l-21.634-23.126s27.602 16.412 37.3 20.888c9.6979 4.476 32.824 10.444 32.824 10.444s-9.6979 29.094-9.6979 38.792c0 9.6979 1.4921 25.364 5.968 31.332 4.476 5.968 8.9519 11.936 8.9519 11.936s11.936-17.158 20.888-18.65 23.872 0.746 26.11 5.968 8.2059 28.348 8.2059 28.348z" fill="url(#as)"/>
  <path d="m663.72 165.41c-27.76-0.15494-54.147 3.9907-72.594 11.5-11.636 4.7368-28.453 14.651-36.688 21.625-7.8053 6.6105-16.312 17.206-16.312 20.312 0 2.9164-0.011963 2.9244 5.7812 0 6.0386-3.0483 23.094-8.5074 29.094-9.3125l4.625-0.625-7.1562 7.5625c-9.9953 10.561-18.971 26.502-25.031 44.438-2.2505 6.6602-2.6945 9.9148-3 21.812-0.36182 14.088 1.0245 25.469 3.2188 26.188 0.58264 0.19076 3.499-2.6829 6.4688-6.4062 2.9697-3.7234 8.6882-10.156 12.719-14.281l7.3438-7.5-0.7812 5.5c-1.1691 8.1706-0.55005 26.848 1.1562 35.031 1.4413 6.9125 1.388 7.3539-0.65625 11.344-3.0244 5.9029-3.7468 21.466-1.3438 28.812 2.0472 6.259 7.8242 14.815 11.75 17.438 1.8469 1.2338 2.5889 2.3893 2.1562 3.375-5.0762 11.566-6.3352 21.098-3.9062 29.594 4.5052 15.758 22.099 34.986 40.625 44.438 5.2676 2.6874 4.995 2.8812-9.0625 5.4688-21.616 3.9789-49.146 13.986-57.562 20.938l-3.0312 2.5-1.25-8.7188c-5.2079-36.542-9.5926-46.661-28.469-65.719l-5.9375-6 4.875 6.3438c2.6793 3.4789 6.5198 8.4289 8.5625 11 6.045 7.6084 11.891 18.667 13.906 26.344 2.1033 8.0115 2.5262 13.21 0.71875 8.8125-0.56512-1.375-3.4778-7.5429-6.5-13.719-4.4365-9.0661-7.0198-12.873-13.406-19.75-7.145-7.6933-7.9062-8.9144-7.9062-12.531 0-4.2488-1.6493-5.5445-2.2188-1.75-0.30402 2.0257-0.62787 1.8547-3.3125-1.9375-2.2418-3.1666-3.6579-4.2215-5.7188-4.25-3.1762-0.043976-15.875 5.26-20.312 8.5l-3.0312 2.2188-2.8125-2.4375c-1.9797-1.7029-3.7834-2.3375-5.9688-2.125-2.8426 0.27643-3.1833 0.62656-3.4688 4.0938-0.48007 5.83 2.8891 14.721 14.469 38.344l10.594 21.594-2.375 5.0625c-3.3272 7.1132-3.1575 15.415 0.4375 22.375 1.4714 2.8486 3.0644 5.4421 3.5625 5.75 0.49811 0.30786 1.2026 2.1127 1.5625 4.0312 0.35992 1.9185 2.2051 5.5258 4.0938 8 1.8886 2.4742 3.7175 5.6252 4.0625 7 1.1 4.3829 8.1698 11.278 14.969 14.625 5.2575 2.5883 7.2515 3.0717 10.938 2.6562 2.4816-0.27972 4.5312-0.22424 4.5312 0.125 0 0.61438 5.6583 9.7874 20.656 33.344 6.6892 10.506 22.149 30.013 35.25 44.5 6.4332 7.1138 11.95 9.998 20.938 10.938 6.3749 0.66632 16.772-0.88928 21.156-3.1562 1.3898-0.71869 7.22-1.7678 12.969-2.3438l10.438-1.0625 4.0312 3.5312c2.2185 1.9273 6.2 4.8909 8.8125 6.5938 3.6218 2.3607 4.75 3.7059 4.75 5.6562 0 2.6042-3.0681 27.433-3.4375 27.844-0.2096 0.23297-3.4798 0.73908-12.062 1.7812-13.099 1.5906-34.315 6.8559-40.719 10.125-1.7487 0.8927-2.9061 1.0325-3.3125 0.375-0.34424-0.55695-1.0416-0.75946-1.5625-0.4375-0.521 0.32196-0.69379 1.0154-0.375 1.5312 1.0038 1.6243-2.6252 2.2498-4.1562 0.71875-1.1771-1.1771-2.7363-1.2719-8.0312-0.5625-5.4994 0.73682-6.8763 0.60632-8.375-0.75-1.9396-1.7553-5.5318-1.5042-13.969 1-6.9032 2.049-19 2.59-19 0.84375 0-0.76886-0.62781-1.6195-1.375-1.9062-1.3121-0.50348-11.297 1.5541-14.875 3.0625-1.3292 0.56042-1.75 0.23792-1.75-1.2812 0-1.1-0.5625-2.215-1.25-2.4688-1.1786-0.435-11.399 1.3721-15.938 2.8125-0.31018 0.09845-0.49884 0.11566-0.59375 0.0625-0.007141-0.004028-0.02533 0.004822-0.03125 0-0.17389 0.067383-0.28259 0.1535-0.46875 0.21875-0.15387 0.082275-0.33728 0.096069-0.5 0.15625-0.022644 0.015869-0.039185 0.047485-0.0625 0.0625-0.20319 0.095703-0.25909 0.16547-0.5 0.1875-0.098022 0.008972-0.21417-0.03302-0.3125-0.03125-0.010498 1.83e-4 0.0177 0.030396 0.03125 0.03125-0.011902 0.007019-0.020569 0.022766-0.03125 0.03125-0.096619 0.16443-0.47833 0.21899-0.59375 0.25-0.16144 0.043274 0.05127-0.023621-0.0625 0.03125-0.05249 0.02533-0.10217 0.040771-0.15625 0.0625 0.039978 0.059875-0.59515 0.20196-0.625 0.28125-0.24286 0.16315-0.5293 0.18347-0.8125 0.15625-0.1145 0.060974-0.22357 0.10736-0.34375 0.15625-0.061096 0.024902-0.12567 0.070862-0.1875 0.09375-0.28094 0.26038-0.40521 0.17743-0.75 0.1875-0.044189 0.001343 0.051392 0.028503 0.125 0.03125-0.025513 0.010925-0.069153 0.049927-0.09375 0.0625-0.067017 0.066284-0.066223 0.083618-0.1875 0.125-0.21204 0.072327-0.33185 0.095642-0.46875 0.09375-0.009766 0.009277-0.024597 0.02301-0.03125 0.03125-0.02832 0.035217-0.062256 0.061462-0.09375 0.09375-0.068298 0.069885-0.13104 0.14423-0.21875 0.1875-0.28583 0.14105-0.39002 0.15839-0.625 0.1875-0.27301 0.031311-0.53857 9.77e-4 -0.8125 0-0.25384 0.007935-0.50476 0.012268-0.75-0.0625-0.1087 0.022278-0.21082 0.03125-0.34375 0.03125-0.41003 0-0.41211 0.012878-0.8125-0.0625-0.082214-0.015503-0.17554-0.024475-0.25-0.0625-0.061035-0.031067-0.098877-0.087219-0.15625-0.125-0.24487-0.026917-0.59338-0.050537-0.78125-0.15625-0.11102-0.0625-0.21191-0.17169-0.3125-0.25-0.08667-0.014954-0.070129-0.038147-0.125-0.125-0.28284-0.1438-0.1875-0.24365-0.3125-0.15625-0.050415-0.030884-0.072998-0.065674-0.125-0.09375-0.009033-0.005005 0.009583 0.033447 0 0.03125-0.042603-0.01001-0.083069-0.050293-0.125-0.0625-0.19293-0.056213-0.32727-0.11816-0.5-0.21875-0.1626-0.06189-0.21295-0.10394-0.3125-0.15625-0.0802-0.016907-0.17297-0.034302-0.25-0.0625-0.26266-0.10199-0.43408-0.31299-0.65625-0.46875-0.12808-0.091309-0.29929-0.11462-0.4375-0.1875-0.17163-0.090515-0.22321-0.15497-0.375-0.21875-0.089722 0.045593 0.006683 0.024658-0.25-0.0625-0.15778-0.051392-0.31442-0.12335-0.46875-0.1875-0.088287-0.008423-0.16565-0.037537-0.25-0.0625-0.039307 0.013489-0.052429-0.004883-0.09375 0-0.40643-0.06012-0.45013-0.064209-0.4375-0.0625 0.01001 0.008423-0.020538 9.77e-4 -0.03125 0-0.018738-0.009766-0.025208-0.033447-0.125-0.0625-0.086884-0.028625-0.19443-0.033691-0.28125-0.0625-0.008606-0.002991-0.022797 0.003662-0.03125 0-0.20816 0.050171-0.44342 0.005676-0.65625 0-0.12402-0.003418-0.25095-7.93e-4 -0.375 0-0.009369 0.00354-0.019257-0.005981-0.03125 0-0.010345 6.1e-5 -0.020905-6.1e-5 -0.03125 0-0.043182 2.44e-4 -0.083313-0.011414-0.125 0-0.037506 0.010315 0.086121 0.030273 0.125 0.03125-0.13315 0.11401-0.43689 0.28339-0.53125 0.3125-0.051849 0.015991-0.082764 0.022766-0.125 0.03125-0.029144 0.019409-0.051544 0.023193-0.09375 0.0625-0.10419 0.11859-0.1919 0.21338-0.3125 0.3125-0.072388 0.047607-0.14896 0.10486-0.21875 0.15625-0.14062 0.14264-0.23825 0.17609-0.4375 0.28125-0.03833 0.020264-0.053741 0.025818-0.0625 0.03125-0.2005 0.11603-0.091461 0.073669-0.34375 0.1875-0.070526 0.041443-0.11612 0.085083-0.1875 0.125-0.092712 0.051819-0.11963 0.023987-0.09375 0.0625-0.019257 0.011169-0.043091 0.020325-0.0625 0.03125-0.043701 0.1449-0.50867 0.39142-0.59375 0.4375-0.24655 0.039612-0.46808 0.16638-0.71875 0.1875-0.159 0.013428-0.25513-0.016541-0.40625-0.03125-0.24484-0.010925-0.44043 0.002441-0.6875-0.09375-0.12015-0.046814-0.22754-0.13159-0.34375-0.1875-0.011719-0.007507-0.019684-0.023499-0.03125-0.03125-0.22342-0.028992-0.43964-0.066589-0.65625-0.125-0.27777-0.060181-0.53961-0.13641-0.8125-0.21875-0.041016-0.01239-0.083496-0.020142-0.125-0.03125-0.21002 0.022705-0.46783-1.83e-4 -0.75-0.125-0.12805-0.05658-0.2449-0.10449-0.375-0.15625-0.038605-0.01532-0.085083-0.01947-0.125-0.03125-0.28735 0.12122-0.4505-0.12494-0.71875-0.125-0.0242 0-0.096741 0.027771-0.125 0.03125-0.23294 0.044006-0.46991-0.087769-0.6875-0.15625-0.052399-0.016479 0.050903 0.014648-0.0625 0.03125-0.14075 0.019592-0.29559 0.032043-0.4375 0.03125-0.001007 0.039001-0.088135 0.018372-0.125 0.03125-0.4693 0.11456 0.10388 0.013855-0.4375 0.09375-0.1402 0.05188-0.39371 0.058899-0.5 0.0625-0.24652-0.026611-0.50275-0.003296-0.75 0 0.007294-0.00293-0.028259 0.007019-0.03125 0-0.15341 0.053772-0.35406 0.069336-0.5 0.09375-0.028381 0.005005-0.065369 0.02655-0.09375 0.03125-0.1542 0.025452-0.22696 0.023438-0.3125 0.03125-0.10248 0.009338-0.20203 0.022522-0.375 0.03125-0.019958 0.019043-0.076782 0.033691-0.125 0.03125-0.009888 3.05e-4 -0.02124-2.44e-4 -0.03125 0-0.009949-9.77e-4 -0.020782 0.001404-0.03125 0l-0.2812 0.0625c-6.4574 1.3849-6 1.4436-6-0.90625 0-2.6968-2.623-2.5854-10.062 0.4375l-6 2.4375 2.0312-2.5625c2.6923-3.4227 2.5601-5.1461-0.46875-5.9062-3.123-0.78381-6.692 0.088562-12.688 3.0938-3.8141 1.9118-4.774 2.0966-5.2188 0.9375-0.66516-1.7334-3.5221-1.7973-5.7188-0.125-2.5306 1.9266-6.875 8.7817-6.875 10.844 0 2.7026 1.6509 2.2598 2.375-0.625 0.55038-2.1929 4.9424-7.5312 6.1875-7.5312 0.26413 0-0.18445 1.2979-1 2.875-1.241 2.3999-1.2671 3.1683-0.15625 4.6875 1.2403 1.6962 1.5196 1.5637 4.5938-1.9375 3.1427-3.5794 9.6441-7.5068 15-9.0938 1.9537-0.57892 1.227 0.48987-3.25 4.875l-5.7188 5.5938h3.125c1.7275 0 5.1032-1.1266 7.5-2.5312 4.3356-2.5408 13.378-5.7473 14.125-5 0.21548 0.21545-1.217 1.4419-3.1875 2.7188-2.3644 1.5321-3.5858 3.0955-3.5938 4.5938v2.2812l3.75-1.9062c3.5683-1.792 11.21-4.3911 15.938-5.4375 1.9149-0.42389 2.0388-0.26953 1.0312 1.3438-1.7223 2.7579-0.31988 3.3094 3.4375 1.3438 3.9562-2.0696 9.2575-2.4424 9.4375-0.65625 0.069275 0.6875 0.21256 1.4921 0.28125 1.7812 0.068726 0.28912 1.4578-0.15399 3.0938-1 3.3274-1.7206 21.16-6.7148 21.781-6.0938 0.21918 0.21918-1.4127 1.4686-3.6562 2.75-2.3199 1.325-4.0897 3.0673-4.0938 4.0625-0.009277 2.1155 0.1402 2.1211 4.4688 0.3125 2.7178-1.1356 14.722-4.5625 15.969-4.5625 0.1543 0 0.044067 1.125-0.21875 2.5-0.53662 2.8072 0.37964 3.128 3.2812 1.1562 2.1384-1.4532 12.126-3.6562 16.562-3.6562 1.5124 0 2.9136 0.52191 3.125 1.1562 0.271 0.81299 1.1176 0.7113 2.8438-0.375 1.3469-0.8476 4.1797-1.8498 6.2812-2.2188 2.1016-0.36902 4.464-0.91718 5.25-1.2188 1.0223-0.39233 1.4375 0.2146 1.4375 2.1562 0 2.1973 0.33313 2.5935 1.75 2 2.1205-0.88824 17.25-1.9578 17.25-1.2188 0 0.28833-2.1375 1.9031-4.75 3.5938-5.5702 3.6046-11.222 8.6462-13.562 12.094-0.94855 1.3971-2.8572 2.5476-4.4375 2.7188-2.6146 0.28314-2.588 0.24091 0.625-1.1875 1.8707-0.83166 3.1663-1.7712 2.875-2.0625-1.1576-1.1576-15.75 3.5639-15.75 5.0938 0 1.2824 8.0352 5.5715 9.1875 4.9062 0.71924-0.41528 0.94537-0.36273 0.53125 0.09375-1.0278 1.133 6.9949 5.7666 8.4375 4.875 0.71344-0.44092 0.87915-0.2771 0.4375 0.4375-0.40686 0.65826-0.12555 1.1562 0.65625 1.1562 2.4747 0 9.215 3.8175 10.5 5.9375 1.1797 1.9464 1.0388 2.0625-2.25 2.0625-2.452 0-3.5 0.45166-3.5 1.5 0 1.1667 1.3334 1.5 6 1.5 5.3334 0 6-0.22223 6-2 0-1.1111-0.66663-2-1.5-2-0.82501 0-1.5-0.45001-1.5-1 0-1.4168 0.28992-1.3401 7.6562 2 3.639 1.65 6.7698 3 6.9688 3 1.1334 0 0.082458-3.386-1.625-5.2188-1.1-1.1807-2-2.5247-2-2.9688 0-1.3093 9.452 2.673 13.281 5.5938 2.1938 1.6732 3.784 2.3092 4.1875 1.6562 0.83704-1.3544 20.531-1.4139 20.531-0.0625 0 4.2018 27.668 10.559 42.812 9.8438 3.9491-0.18646 7.1885 0.029724 7.1875 0.46875-0.001221 0.43903 1.4625 1.4418 3.25 2.2188 4.3308 1.8823 4.8247 1.812 5.4375-0.53125 0.28766-1.1 1.0612-2 1.7188-2 0.65753 0 3.067 0.90002 5.3438 2 2.2767 1.1 4.3859 2 4.6875 2 1.1575 0 0.479-4.1786-1.0625-6.5312-2.385-3.6399-0.4679-3.0254 6.1875 2 3.2584 2.4603 6.275 4.4854 6.6875 4.5 1.3405 0.047607 0.75854-2.3692-1.75-7.4688-2.988-6.0742-3.0576-6.8498-0.59375-5.5312 2.3857 1.2768 10.094 9.0508 10.094 10.188 0 1.9561 3.7515 0.64117 4.8125-1.6875 1.6282-3.5734 10.036-12.348 13.594-14.188l2.9688-1.5312-1.875 2.875c-1.0308 1.5833-2.514 3.3752-3.3125 3.9688-1.1722 0.87134-1.2126 1.5137-0.25 3.3125l1.1875 2.2188 3.8438-3.4688c3.6712-3.3167 18.673-11.327 19.562-10.438 0.71448 0.71448-5.6858 6.7812-7.1562 6.7812-1.5513 0-1.9448 4.5565-0.46875 5.4688 0.51233 0.31665 1.5663-0.30957 2.3125-1.375 2.0184-2.8815 23-12.187 24.375-10.812 0.66003 0.6601-5.3233 5.2188-6.8438 5.2188-1.4277 0-2.9225 4.3066-1.75 5.0312 0.51025 0.31537 1.9657-0.10315 3.2188-0.90625 2.476-1.5868 7.8086-3.0581 14.562-4.0312 4.0894-0.58923 4.2268-0.53564 3.1875 1.4062-1.5384 2.8746-0.37659 4.2948 2.3125 2.8125 2.3255-1.2819 17.246-1.5831 20.312-0.40625 2.8379 1.089 17.406 1.4825 17.406 0.46875 0-1.8523-5.5346-2.908-18.531-3.5312-11.816-0.56665-13.384-0.86078-13.812-2.5-0.28522-1.0906-1.3912-1.8438-2.6875-1.8438-2.0759 0-2.0192-0.18195 1.0312-3.6562 4.3442-4.9478 6-9.21 6-15.594 0-6.6879-3.7493-14.622-8.4062-17.812-2.3435-1.6058-3.2886-2.978-3.2188-4.75 0.083252-2.1134 1.5397-3.249 9.2188-7.1875 10.999-5.6413 14.528-6.1793 8.8125-1.3438-2.1574 1.8251-4.2438 3.3358-4.6562 3.3438-1.0433 0.020691-0.95013 4 0.09375 4 0.46552 0 2.153-0.64111 3.75-1.4375 3.234-1.6127 13.954-4.5621 16.344-4.5 0.88391 0.02301 0.39105 0.67487-1.1875 1.5312-1.8274 0.99146-2.75 2.3035-2.75 3.9062v2.4062l4.5625-2.0312c2.5163-1.1131 7.0616-2.2808 10.094-2.5938 5.3754-0.55481 5.4859-0.4953 5.1562 1.8438-0.27264 1.9347 0.074585 2.3273 1.6875 2.0312 4.5821-0.84088 13.786-1.3056 15.875-0.78125 1.2357 0.31012 3.5401 1.7034 5.1562 3.0938s4.5438 2.8035 6.4688 3.125c1.925 0.32147 4.9998 1.0601 6.8438 1.625 4.4188 1.3539 9.9481 0.37683 15.844-2.7812 3.7914-2.0309 5.6414-2.4589 8.7812-1.9688 2.1835 0.34082 4.2921 1.1727 4.6875 1.8125 0.52252 0.84546 1.215 0.71783 2.5312-0.4375 2.5956-2.2783 7.8962-4.8304 10-4.8125 1.076 0.009155 1.3602 0.31073 0.71875 0.75-1.4025 0.96033-2.569 4.1778-1.9062 5.25 0.28607 0.46289 1.7468 0.19043 3.25-0.59375 3.1126-1.6238 12.25-1.9498 12.25-0.4375 0 0.54999 0.40521 1 0.9375 1 0.58502 0 0.66235-0.88983 0.15625-2.25-0.73163-1.966-1.4226-2.2034-5.4688-1.9062-4.0537 0.29773-4.625 0.097534-4.625-1.625 0-3.5399-2.3708-4.5228-7.7188-3.2188-11.758 2.8673-15.177 3.7155-14.906 1.9375-0.61377-0.020996-1.2305-0.038818-1.8438-0.0625-0.026001 0.009766-0.036194 0.021362-0.0625 0.03125 0.70587-0.16827-1.0687 0.30719-2.8125 0.6875-0.23364 0.053467-0.44061 0.07428-0.6875 0.125-0.19696 0.039978-0.4101 0.091125-0.59375 0.125-0.071289 0.015198-0.19385 0.049561-0.25 0.0625-0.41296 0.095154-0.73334 0.16211-1.0312 0.21875-0.46631 0.15875-0.94226 0.32721-1.25 0.4375-0.45288 0.16235-0.9447 0.28388-1.4375 0.375-1.3392 1.1921-2.5932 2.1389-3.5938 2.6562-0.57019 0.29486-1.058 0.52167-1.5 0.71875-2.0292 1.3689-4.1408 1.1462-11.438 0.03125-1.6707-0.25531-4.3915-3.5856-6.125-5.625-0.36157-0.172-0.72986-0.33014-1.0938-0.5 3.2194 3.395 5.1266 5.7828 4.4375 5.7812-1.7371-0.004028-7.5325-3.2825-9.7812-5.5312-0.29474-0.29474-0.93481-1.2518-1.7188-2.4688-0.76208 0.007996-1.519 0.037231-2.2812 0.03125-0.38513-0.003113-0.77112 0.00116-1.1562 0l0.4688 0.9688h-4.0625c-2.8594 0-4.4249-0.54126-5.2188-1.8125-0.2395-0.38354-0.4519-0.68536-0.75-0.90625-0.009338-0.003784-0.021851 0.003845-0.03125 0-0.028625-0.020752-0.063965-0.043152-0.09375-0.0625-0.11969-0.049194-0.21967-0.07251-0.34375-0.125-0.079468-0.03363-0.16504-0.082336-0.25-0.125-0.97601-0.3056-2.5196-0.21918-5.5312 0.15625-9.3893 1.1704-10.082 1.066-10.688-1.25-0.51343-1.9633-0.99298-2.067-6.2812-1.4062-3.145 0.39294-6.2377 0.93091-6.9062 1.1875-0.8114 0.31134-1.0835-0.32507-0.78125-1.9062 0.27539-1.4406-0.17932-2.9133-1.1875-3.75-2.1178-1.7576-7.6449-0.36621-18.312 4.5625-4.1374 1.9116-7.6316 3.3607-7.75 3.2188-0.45154-0.54138-6.3316-22.668-8.375-31.5l-2.125-9.25 4.5-10.344c2.4763-5.6871 5.0432-12.77 5.7188-15.75 1.9614-8.6503 1.4541-29.996-0.9375-39.312-1.943-7.5695-1.9413-7.9966-0.25-11 0.96777-1.7186 2.2932-5.375 2.9688-8.125s1.6566-6.125 2.1562-7.5c1.5528-4.2735 1.7289-19.123 0.34375-27.5-1.4802-8.9523-5.8192-22.344-9.7812-30.156-2.8873-5.6928-10.896-15.772-17.156-21.594-5.451-5.0698-15.77-9.9514-22.281-10.531-4.705-0.41901-5.2144-0.6788-4.6562-2.4375 1.0586-3.3352-0.57562-10.613-3.0312-13.531l-2.3438-2.7812 2.25-2.7812 2.2188-2.8125 1.8438 2.7812c4.4241 6.7521 9.3231 9.4788 17.469 9.6562 5.1431 0.11203 6.3654-0.30182 11.281-3.6875 7.6658-5.2796 12.632-10.049 18.375-17.625 7.2638-9.5812 9.827-13.822 12.438-20.5 1.29-3.3 3.7385-7.5848 5.4375-9.5312 9.0861-10.41 18.313-28.488 21.469-42.062 0.69037-2.9694 1.6328-6.6517 2.0938-8.1875s1.3912-8.3258 2.0625-15.094c4.2466-42.811-14.591-86.627-46.125-107.22-2.475-1.6162-7.9934-4.7508-12.25-6.9375s-7.744-4.3794-7.75-4.875c-0.021729-1.8165 19.369 0.23993 27.219 2.875 8.9098 2.9909 8.7812 2.9573 8.7812 1.0938 0-1.6954-12.811-11.784-19.719-15.531-11.756-6.377-24.144-10.023-34.156-10.031-6.3858-0.004837-7.2172-0.19044-6.1562-1.4688 1.9279-2.3229 11.892-6.6845 16.938-7.4062 3.6315-0.51946 4.5938-1.0408 4.5938-2.5625 0-2.8979-7.998-4.781-20.219-4.75-11.529 0.029251-18.617 1.7058-27.594 6.4688l-5.8125 3.0625-11.688-2.625c-26.784-6.0269-33.176-6.9152-53.031-7.4375-1.8609-0.04895-3.7118-0.08342-5.5625-0.09375zm104.75 3.4688c5.3319-0.13156 9.9179 0.23041 10.812 1.125 0.9751 0.97511 0.8255 1.242-0.71875 1.25-4.7381 0.023727-17.129 7.6242-19.438 11.938-0.86426 1.6148-0.37781 1.7309 5.9062 1.2812 13.429-0.96085 30.77 4.0358 44.469 12.812 4.3224 2.7694 7.6744 5.2006 7.4688 5.4062-0.20563 0.2056-2.8372-0.25134-5.8438-1.0312-9.3396-2.4226-27.042-1.0931-27.406 2.0625-0.062805 0.54376 3.7313 3.1692 8.4062 5.8438 18.094 10.352 30.866 21.576 39.812 34.969 9.6234 14.406 17.944 36.677 19.594 52.375 3.0816 29.316-3.9975 61.649-17.531 79.969-2.113 2.8602-4.2321 5.4492-4.7188 5.75-0.48669 0.30081-1.1344-1.8142-1.4375-4.6875-1.2214-11.578-5.7615-20.511-12.594-24.844-3.8294-2.4285-5.5732-2.875-11.188-2.875-8.2075 0-11.574 1.1151-20.219 6.6562-5.6085 3.595-7.6251 4.3438-11.625 4.3438h-4.8438l-2.7812-8.25c-5.6565-16.833-4.0944-45.025 3.3125-59.969 1.5759-3.1795 2.6486-6.0077 2.375-6.2812-0.27362-0.27359-1.7219-0.5-3.2188-0.5-5.4709 0-27.422-7.2936-39.938-13.281-11.735-5.6145-26.212-15.379-30.344-20.469-1.6704-2.0573-4.6562-3.0992-4.6562-1.625 0 1.3882 9.136 14.22 13.438 18.875 2.5415 2.75 5.5364 6.2375 6.6562 7.75l2.0312 2.75h-3.0312c-10.975 0-46.28-9.9954-75.594-21.406-3.85-1.4987-9.3605-3.5726-12.219-4.5938-2.8582-1.0212-6.821-2.6175-8.8125-3.5625-3.5249-1.6727-3.7412-1.6562-7.8125 0.59375-11.754 6.4953-27.978 19.28-41.812 32.969-8.0597 7.975-15.568 16.039-16.688 17.906l-2.0312 3.4062-0.6875-3.75c-1.2506-6.6663 0.20911-28.499 2.375-35.562 3.3223-10.835 6.9638-19.704 11.25-27.281 5.8031-10.259 8.8585-14.264 20.188-26.625 5.3674-5.8565 5.764-7.0938 2.3438-7.0938-7.1509 0-30.561 6.8503-36.438 10.656-6.8524 4.4376 0.53381-3.8448 11.531-12.938 11.251-9.3024 25.387-17.866 36.312-21.969 19.185-7.204 45.7-11.194 74-11.125 18.493 0.045044 22.741 0.52786 52.5 5.875 12.265 2.2038 15.119 2.1112 21.5-0.84375 3.025-1.4009 8.425-3.3001 12-4.2188 3.9463-1.014 10.012-1.6497 15.344-1.7812zm-156.5 83.312l6.3125 2.4375c3.4726 1.3312 11.069 4.662 16.844 7.4062 5.775 2.7443 17.925 7.53 27 10.625s17.094 5.8242 17.844 6.0938c1.0852 0.39032 1.1321 0.79297 0.15625 1.9688-0.97595 1.176-0.96039 1.576 0.125 1.9375 0.74945 0.2496 5.425 1.8863 10.375 3.625 11.147 3.9155 13.5 4.4622 13.5 3.1562 0-0.56522-1.4768-2.258-3.25-3.75l-3.2188-2.7188 9.25 0.75c6.5502 0.51843 10.117 0.37051 12.219-0.5 1.6331-0.67645 3-1.5095 3-1.8438 0-0.33429-3.7125-4.3997-8.25-9.0312-4.5375-4.6316-6.9-7.4933-5.25-6.375 15.623 10.588 34.592 19.322 49.5 22.812 4.125 0.9657 7.6077 1.8356 7.75 1.9375 0.14233 0.10187-1.0369 3.0695-2.625 6.5938-6.3558 14.105-8.394 36.057-4.7188 50.906 1.0209 4.125 2.173 7.95 2.5625 8.5 0.38946 0.54999 1.0006 1.7875 1.3438 2.75 0.57696 1.6185-0.56384 1.75-14.969 1.75-14.436 0-15.529-0.12805-14.875-1.75 2.9053-7.2063 0.37793-22.764-5.625-34.531-2.5983-5.0931-9.4122-13.337-12.406-15-1.2037-0.66861-3.5898-2.0065-5.2812-2.9688-4.7427-2.6982-13.904-4.738-21.125-4.7188-14.663 0.03894-26.93 4.8627-32.375 12.75-3.0167 4.3702-7.6592 14.533-7.75 17-0.047363 1.2858-0.26245 1.148-0.9375-0.53125-1.5199-3.781-8.7654-12.981-12.219-15.531-5.3718-3.9676-11.202-5.7035-19.031-5.6875-12.439 0.025421-26.929 4.6159-35.062 11.125-2.0989 1.6798-3.9994 2.8444-4.25 2.5938-0.87134-0.87128-3.4334-14.27-4.0625-21.312-0.34814-3.8972-0.30487-10.59 0.09375-14.844l0.7188-7.7188 8-6.3438c4.4009-3.4799 13.105-9.7475 19.344-13.938l11.344-7.625zm2.0938 29.469c-1.0259 0.085327-2.1747 0.67874-4.25 1.9062-5.0449 2.984-11.688 9.0068-11.688 10.562 0 0.61331 0.62305 1.0938 1.4062 1.0938 1.9834 0 20.094-9.5448 20.094-10.594 0-0.47058-1.2791-1.4838-2.8125-2.2188-0.9419-0.45145-1.6226-0.71213-2.3125-0.75-0.14374-0.007904-0.29096-0.012177-0.4375 0zm69.406 24.156c1.2224-0.012329 2.6086 0.003448 4.1562 0 12.49-0.027802 13.243 0.10211 19.625 3.0938 10.092 4.7307 14.876 10.25 18.844 21.781 3.4984 10.168 4.2732 16.866 2.875 25.188-1.2366 7.3596-1.4166 7.6386-7.375 13.188-8.7594 8.1575-13.593 11.198-21.219 13.312-6.2215 1.7252-16.705 2.3516-20.25 1.2188-0.82501-0.26361-4.425-1.4197-8-2.5625-10.387-3.3203-13.97-6.3735-17.969-15.469-2.9121-6.6244-3.5052-9.26-3.875-17.219-0.48523-10.444 0.75934-17.627 4.5-26.094 3.2468-7.3487 5.643-9.756 13.344-13.375 5.4168-2.5456 6.787-2.9761 15.344-3.0625zm-4.6875 4.7188c-2.0095 0.14948-3.5747 1.582-3.9375 4.0312-0.59564 4.021-0.15515 5.1555 2.5625 6.4688 3.0847 1.4907 3.4738 1.4325 5.7188-0.8125 2.7412-2.7412 2.5514-6.5621-0.40625-8.5-1.366-0.89508-2.7319-1.2772-3.9375-1.1875zm1.7188 1.875c0.068237-0.025116 0.13568 0.010681 0.21875 0.09375 0.33228 0.33228 0.35138 1.1844 0.0625 1.9062-0.31921 0.79773-0.54578 0.5712-0.59375-0.59375-0.032593-0.79062 0.10791-1.3309 0.3125-1.4062zm-60.812 0.0312c4.0563-0.01535 5.5856 0.57126 9.4375 2.5625 6.4011 3.309 11.803 9.8394 14.938 18.031 2.9035 7.5873 3.8381 26.088 1.5938 31.438-1.4658 3.494-1.8652 3.745-5.8125 3.75-9.2839 0.012207-17.719 4.6211-17.719 9.6562 0 1.8578-0.90729 2.5312-4.9062 3.7188-13.497 4.0082-26.911 1.745-34.5-5.8438-7.9683-7.9683-10.799-15.178-10.781-27.562 0.014343-9.9281 2.6408-17.158 8.25-22.781 6.7971-6.8138 20.962-12.082 34.438-12.781 2.101-0.10907 3.7104-0.18237 5.0625-0.1875zm2.5 4.8438c-0.55579 0.015381-1.0698 0.12344-1.5625 0.3125-2.0821 0.79898-1.9545 7.4769 0.1875 9.8438 2.1646 2.3918 4.0842 1.9689 6.625-1.4375 1.6949-2.2722 1.8267-3.13 0.875-5.2188-0.95764-2.1018-3.7167-3.5666-6.125-3.5zm1.3125 1.2812c0.35858-0.060303 0.625 0.15689 0.625 0.59375 0 0.58246-0.45001 1.0625-1 1.0625s-1-0.19495-1-0.4375 0.45001-0.7226 1-1.0625c0.13751-0.084991 0.25549-0.13614 0.375-0.15625zm180.22 34.844c5.4834-0.20136 10.116 1.5393 13.938 5.2188 5.2852 5.0883 7.3981 11.587 7.5625 23.281 0.11072 7.8754-0.13983 8.9266-3.9688 16.906-9.8442 20.516-24.916 34.485-38.781 36-6.3392 0.69263-10.592-1.5577-15.781-8.4375l-3.9062-5.1875-1.3438 2.75c-2.5457 5.1704-27.248 29.281-30 29.281-0.36182 0-1.4021-0.64185-2.2812-1.4375-1.2322-1.1151-2.4943-1.2426-5.5625-0.53125-5.9805 1.3865-6.07 1.3479-8.3438-3.9375-2.3987-5.5759-3.5806-6.3406-7.125-4.5625-5.2908 2.6542-14.506 4.6946-42.969 9.5-16.208 2.7364-29.987 4.9688-30.594 4.9688-0.60651 0-6.0203-2.4614-12.031-5.4688-20.874-10.443-38.975-30.409-40.844-45.031-0.86755-6.7898 2.535-22.209 5.2812-23.906 0.49152-0.30377 2.3166 0.16028 4.0625 1.0312 1.7458 0.87097 5.8108 1.833 9.0312 2.125 6.0395 0.54764 18.658-1.2794 19.625-2.8438 1.0145-1.6414 2.1823-0.91821 3.4688 2.1875 1.3212 3.1898 9.182 8.0368 10.656 6.5625 0.40918-0.40918-1.6385-2.8554-4.5625-5.4375-4.4744-3.9511-5.2898-5.1834-5-7.625 0.47321-3.9875 4.1646-6.3784 11.781-7.7188 7.37-1.297 13.555-0.28342 19.438 3.1875 4.5714 2.6971 5.0427 6.8705 1.0938 9.6562-5.6786 4.006-6.9252 5.1347-6.2812 5.7812 1.0327 1.0369 4.52-0.35953 7.8438-3.1562 2.2132-1.8623 3-3.3711 3-5.8125v-3.3125l3.5312 1.8125c1.9502 0.99426 4.1215 2.3068 4.8438 2.9062 2.554 2.1196 11.192 4.0518 18.125 4.0625 13.99 0.021545 24.717-4.7183 37-16.375l6-5.6875 16.938 0.6875 16.969 0.6875 3.1562 3.3438c1.7346 1.8393 3.7712 3.3193 4.5312 3.2812 0.76001-0.038086 3.5216-2.708 6.125-5.9375 3.5748-4.4345 6.2675-6.588 11-8.8125 5.3228-2.502 10.11-3.8434 14.375-4zm-154.28 8.9688c0.029846-0.021576 0.043213-0.024719 0.0625 0 0.15454 0.19782 1.7344 2.4813 3.5 5.0938 3.5001 5.1791 3.3322 5.4203-1.9688 2.9375-3.3851-1.5854-3.5145-1.8399-2.6875-5.0312 0.41894-1.6168 0.88452-2.8488 1.0938-3zm122.69 2.8438c1.3111 0 1.7333 0.48477 1.3438 1.5-0.31659 0.82501-0.91144 1.5-1.3438 1.5-0.43231 0-1.0584-0.67499-1.375-1.5-0.38953-1.0152 0.063843-1.5 1.375-1.5zm25.156 12.062c-3.2831 0.10501-6.6242 0.64062-8.4688 1.5938-3.4525 1.784-4.8818 3.2963-7.25 7.625-2.552 4.6646-0.50665 5.1212 3.5 0.78125 2.0622-2.2338 4.5362-4.0625 5.5-4.0625 2.4438 0 7.5625 5.7558 7.5625 8.5 0 6.7814-7.1257 14.843-14.156 16.031-3.5443 0.59882-4.853 2.147-3.1875 3.8125 0.87909 0.87909 7.131-0.2522 10.344-1.875 9.7167-4.908 12.065-21.066 3.9062-26.781-2.2552-1.5796-1.8838-2.0438 2.375-3.0625 3.7886-0.90619 8.645 1.5422 11.594 5.875 2.7614 4.0575 4.125 4.4526 4.125 1.1875 0-2.3602-3.7594-6.5444-7.6875-8.5625-1.6383-0.8417-4.8731-1.1675-8.1562-1.0625zm-84 6.4688c-0.26337 0.018005-0.466 0.14893-0.625 0.40625-0.35681 0.57736 0.72809 1.8857 2.4062 2.9062l3.0625 1.8438-15.25 14.969c-21.795 21.397-30.102 25.419-49.656 24.031-16.318-1.1583-27.323-6.6915-41.031-20.625-6.1282-6.229-6.6519-6.6375-3.0625-2.2188 6.2918 7.7453 9.5492 10.835 15.719 14.781 6.4407 4.1201 13.634 7.1314 21.281 8.9688 7.6914 1.8479 21.069 1.1712 28.5-1.4688 3.3-1.1724 8.7-3.8004 12-5.8125 7.0506-4.299 23.325-18.161 30.375-25.875 4.335-4.7432 5.4327-5.4325 8.7812-5.4375 6.0796-0.00885 14.699-2.9569 13.156-4.5-0.33746-0.33746-3.2159 0.13501-6.4062 1.0625-4.841 1.4073-6.631 1.4965-10.812 0.53125-2.7558-0.63611-5.7854-1.8429-6.7188-2.6875-0.6933-0.62744-1.2797-0.905-1.7188-0.875zm-208.31 21.562c2.0542-0.062134 3.631 1.3732 6.1562 5.125 1.925 2.86 6.4616 8.5986 10.094 12.75 10.665 12.19 19.619 29.696 22.938 44.844 0.56702 2.588 1.2564 5.5875 1.5312 6.6875 0.32263 1.2908-0.050232 1.0248-1.0625-0.75-2.5479-4.4672-2.5289-3.1748 0.0625 3.4375 1.3341 3.4043 2.4295 6.8918 2.4375 7.75 0.041016 4.1776 1.6456 4.2991 6.5938 0.5 10.527-8.0828 33.006-16.264 53.25-19.406 15.593-2.42 40.234-4.5961 62.156-5.5 19.214-0.79224 51.392-4.8078 57.594-7.1875 0.88269-0.33872 1.9656-0.013489 2.4375 0.75 0.63892 1.0338-0.080444 1.7051-2.8438 2.625l-3.6875 1.25 4.8125-0.375c5.9692-0.448 4.986 0.76361-2.3125 2.8125l-5.5 1.5625 5.5-0.5625c3.025-0.30035 6.2277-0.74841 7.125-1 0.89734-0.25159 1.859 0.16278 2.1562 0.9375 0.40851 1.0646-1.4833 1.8623-7.8125 3.25-4.6057 1.0098-8.2447 2.0053-8.0625 2.1875 0.18225 0.18219 4.1371-0.23474 8.7812-0.90625 10.615-1.5348 15.401-0.21143 6.3125 1.75l-6 1.3125 6.5-0.4688c9.3331-0.68591 10.768 0.94244 2.0938 2.375-3.8496 0.63574-8.9747 1.1562-11.406 1.1562-2.4315 0-6.6249 0.42822-9.3125 0.9375-4.4532 0.84387-41.756 4.2541-76.875 7.0312-7.7 0.60889-22.775 2.2479-33.5 3.625s-21.152 2.2095-23.156 1.875c-7.7621-1.2953-21.844 3.0853-21.844 6.7812 0 1.5167-0.9024 1.7592-6.25 1.6875-6.3822-0.085571-17.174-1.987-18.438-3.25-0.38562-0.38562-0.15082-1.2554 0.5-1.9062 2.044-2.044 1.3298-3.9426-3.625-9.6875-2.6458-3.0677-8.3833-10.283-12.75-16.031-4.3667-5.7487-10.098-13.174-12.719-16.5-5.2382-6.6488-21.483-27.723-23.531-30.531-1.0665-1.4621-1.0437-1.864 0.125-2.3125 0.80365-0.30838 1.963 0.39191 2.6875 1.625 0.70136 1.1936 3.7944 4.418 6.875 7.1562 3.8651 3.4356 4.6536 3.9005 2.5312 1.5-5.2895-5.9827-9.6132-12-8.6562-12 0.50476 0 4.6835 3.4875 9.3125 7.75l8.4375 7.75-5.5-6.5c-3.0246-3.575-6.2871-7.0938-7.25-7.8125-2.1914-1.6357-2.2459-2.7799-0.125-3.5938 1.1899-0.4566 4.4323 2.2003 11.656 9.625 10.608 10.903 10.411 10.183-0.65625-2.4375-6.2747-7.1554-7.4315-9.7812-4.2812-9.7812 0.6878 0 4.1416 2.8125 7.6562 6.25l6.375 6.25-5.6875-6.625c-4.4878-5.239-5.3664-6.7736-4.125-7.25 0.84927-0.3259 1.5965-0.51053 2.2812-0.53125zm-30.906 4.9062c2.0752 0 7.0285 5.4504 14.781 16.219 4.0634 5.6439 8.5661 11.565 25.281 33.312 1.375 1.789 5.1492 6.7982 8.4062 11.125s7.4962 9.532 9.4375 11.594c2.7477 2.9181 3.279 4.0334 2.3438 4.9688-0.66083 0.66083-1.1875 1.9941-1.1875 2.9688 0 4.0733 24.744 7.2258 27.469 3.5 0.67535-0.92358 2.1086-1.6875 3.1875-1.6875s8.4708-1.075 16.406-2.4062c17.806-2.9872 37.191-5.2943 59.438-7.0625 31.656-2.516 62.96-5.5964 71.75-7.0625 4.8127-0.80267 10.297-1.4688 12.188-1.4688 1.8906 0 6.4432-0.67737 10.125-1.5312 3.6818-0.85388 8.3013-1.4164 10.281-1.25 3.4776 0.29224 3.6328 0.46094 4.7812 5.6562 1.7007 7.6935 2.8289 22.537 1.6562 21.812-1.5448-0.95471-11.744 1.8127-15.688 4.25-2.0008 1.2366-4.7713 4.2085-6.1875 6.625-3.2288 5.5095-2.6434 9.3201 2.2188 13.906l3.4688 3.25-2.1875 3.6875c-1.6359 2.772-2.0271 4.6898-1.625 7.6875 0.63214 4.713 3.1543 8.9462 5.75 9.625 1.7196 0.44971 1.7407 0.67896 0.28125 2.9062-0.86475 1.3198-1.5313 4.2612-1.5 6.5312 0.063538 4.6035 3.3329 8.8818 8.6875 11.406 3.6912 1.7402 12.742 2.5333 16.562 1.4375 3.4321-0.98431 3.408-1.0651 4.9062 12.5 0.60748 5.5 1.8297 13.79 2.7188 18.406 1.4921 7.7436 1.5004 8.4654 0 9.5625-1.9725 1.4424-42.315 5.957-104.19 11.656-12.65 1.1652-24.8 2.3196-27 2.5625-3.8209 0.42188-4.1189 0.24799-6.5625-3.875-4.4858-7.5688-14.599-27.977-18.969-38.312-2.3254-5.5-8.6591-18.8-14.094-29.562-5.4347-10.763-9.875-20.278-9.875-21.156 0-0.87872-0.33746-1.7542-0.75-1.9375-1.0004-0.44458-16.25-31.59-16.25-33.188 0-1.2523 16.106-3.9009 31.5-5.1875 3.85-0.32178 14.65-1.4561 24-2.5 9.35-1.0438 23.975-2.3671 32.5-2.9688 8.525-0.60175 23.6-1.7892 33.5-2.625 9.9-0.83575 23.625-1.9194 30.5-2.4062 15.063-1.0666 19-1.7166 19-3.125 0-0.6828-1.5336-0.84644-4.25-0.46875-5.231 0.72736-55.471 5.0531-77.25 6.6562-8.8 0.64777-24.82 2.2756-35.594 3.5938-10.774 1.3181-21.349 2.374-23.5 2.375-6.5611 0.003418-31.684 4.7045-35.406 6.625-6.7576 3.4866-23.926 2.7896-32.594-1.3438-4.5943-2.1909-5.1563-4.2961-1.8438-6.9375 3.1237-2.4907 3.6016-1.4994-6.4375-13.469-2.9437-3.5096-6.082-7.275-7-8.375-4.3043-5.158-21.33-26.7-25.844-32.719-7.1481-9.5311-15.583-19.54-17-20.156-0.66238-0.28787 2.2693 3.8519 6.5312 9.1875 4.262 5.3356 10.632 13.738 14.156 18.688 3.5248 4.95 6.6817 9.225 7 9.5 0.3183 0.27499 4.0182 5.225 8.2188 11s10.591 13.712 14.188 17.625l6.5312 7.125-2.4062 2.25-2.4062 2.25 2 5c4.1713 10.583 14.894 31.885 23.562 46.75 4.9711 8.525 12.19 21.575 16.031 29 3.8415 7.425 9.6049 18.432 12.812 24.438 3.2076 6.0058 5.3397 10.602 4.7188 10.219-2.9789-1.8411-16.89-19.754-26.156-33.656-10.086-15.132-16.944-24.994-18.062-26-0.30585-0.27502-1.308-1.6601-2.2188-3.0938-1.4683-2.3112-1.4797-2.7703-0.15625-4.0938 0.82092-0.82092 1.7225-2.9272 2-4.6875 0.43372-2.7522-0.1076-3.7945-3.75-7.4062-3.7981-3.7661-4.1865-4.6354-3.9688-8.4375 0.2923-5.1025-2.1304-9.0049-7.3438-11.812-2.1378-1.1513-3.5625-2.661-3.5625-3.7812 0-5.1924-7.9279-15.542-16.125-21.062-5.125-3.4514-5.4172-3.9293-25.406-43.625-7.1564-14.212-10.173-22.854-8.9688-25.625 0.444-1.022 0.74353-2.2125 0.65625-2.625-0.087341-0.41251 0.71399-0.75 1.7812-0.75zm284.09 24.062l1.9688 3.2188c1.0826 1.7756 1.9667 4.7218 1.9688 6.5312 0.003845 3.3403-2.9502 10.253-5.75 13.438-1.4003 1.5928-1.3588 1.7657 0.375 1.75 1.0477-0.009521 2.9548-1.1345 4.25-2.5 6.5529-6.9085 23.948 0.95184 36.312 16.406 9.9118 12.388 15.599 25.504 17.906 41.281 1.3895 9.5032 0.6488 25.022-1.5625 32.469-2.0536 6.9153-7.2194 13.349-13.469 16.75-4.5794 2.4924-6.4653 2.8621-15.375 3.1562-10.64 0.35138-17.161-0.48554-14.906-1.9062 2.2537-1.4201 5.25-8.4581 5.25-12.375 0-2.0996-0.72607-4.8549-1.5938-6.0938-1.0106-1.4429-1.6396-4.7105-1.75-9.125-0.14429-5.7679-0.57623-7.3227-2.5938-9.4688-2.1277-2.2633-2.3859-3.3529-2.1875-9.4688 0.30688-9.4609-3.3672-16.647-9.4688-18.5-1.8184-0.55212-2.2734-2.1701-3.8125-13.375-1.791-13.039-3.3307-17.231-6.375-17.25-1.8372-0.011536-14.255-10.983-14.219-12.562 0.011841-0.51446 2.3744-2.6387 5.25-4.7188s8.4972-6.8982 12.5-10.719l7.2812-6.9375zm-46.344 10.281l1.5938 4.3438c0.88269 2.3817 1.4548 4.3125 1.2812 4.3125-0.17358 0-2.7249 0.49066-5.6875 1.0625-9.3314 1.8012-25.981 3.7866-36.875 4.4062-5.775 0.32849-17.7 1.0932-26.5 1.6875s-16.338 1.2824-16.75 1.5312c-0.41248 0.24884-0.75 0.01001-0.75-0.5 0-0.51007 1.6875-1.1699 3.75-1.4688 46.466-6.7342 65.271-10.164 75.844-13.906l4.0938-1.4688zm-181.66 4.6562c-0.53272 0-0.72284 0.67499-0.40625 1.5s0.75256 1.5 0.96875 1.5 0.40625-0.67499 0.40625-1.5-0.43604-1.5-0.96875-1.5zm186.03 10.125c-0.34741 0.014282-0.64636 0.11511-0.8125 0.28125-0.33228 0.33228 0.25836 0.57465 1.3125 0.53125 1.1649-0.047974 1.4227-0.30579 0.625-0.625-0.3609-0.14447-0.77759-0.20178-1.125-0.1875zm-193.56 0.375l2.4062 2.75c1.3334 1.5125 2.5709 2.75 2.75 2.75 0.7843 0 0.16406-0.79663-2.4062-3.0625l-2.75-2.4375zm22.875 0.6875c0.068237-0.025085 0.13568 0.010681 0.21875 0.09375 0.33228 0.33228 0.35138 1.1844 0.0625 1.9062-0.31921 0.79773-0.54578 0.57123-0.59375-0.59375-0.032593-0.79065 0.10791-1.3309 0.3125-1.4062zm79.688 0.9375c0.34741-0.014282 0.7641 0.043091 1.125 0.1875 0.79773 0.31921 0.53992 0.57703-0.625 0.625-1.0541 0.043396-1.6448-0.19898-1.3125-0.53125 0.16614-0.16614 0.46509-0.26697 0.8125-0.28125zm90.938 1c-0.45312 0-0.90625 0.080017-1.25 0.21875-0.6875 0.2774-0.125 0.5 1.25 0.5s1.9375-0.2226 1.25-0.5c-0.34375-0.13873-0.79688-0.21875-1.25-0.21875zm-8.9375 1c-0.34741 0.014282-0.64636 0.11511-0.8125 0.28125-0.33228 0.33228 0.25836 0.57465 1.3125 0.53125 1.1649-0.047974 1.4227-0.30579 0.625-0.625-0.3609-0.14447-0.77759-0.20178-1.125-0.1875zm-179.06 2.875c-0.051636 0.051636 0.2218 0.45697 0.84375 1.25 1.3064 1.6658 2.1562 2.1981 2.1562 1.375 0-0.20764-0.78748-0.99518-1.75-1.75-0.79303-0.62195-1.1984-0.92664-1.25-0.875zm184 1.125c-0.45312 0-0.90625 0.080017-1.25 0.21875-0.6875 0.2774-0.125 0.5 1.25 0.5s1.9375-0.2226 1.25-0.5c-0.34375-0.13873-0.79688-0.21875-1.25-0.21875zm-180.53 3.375c-0.045654 0.11908 0.41003 0.93231 1.4062 2.5 1.2233 1.925 3.4244 5.6192 4.9062 8.1875 1.4819 2.5683 2.8516 4.5234 3.0312 4.3438 0.48846-0.48846-2.7603-6.5512-5.6562-10.531-2.0525-2.8209-3.355-4.3898-3.625-4.5-0.026245-0.010681-0.055969-0.017029-0.0625 0zm6.4062 1.25c-0.21649 0.092041 0.61078 2.2131 2.5625 6.4375 1.9526 4.2264 3.5625 8.3243 3.5625 9.0938 0 0.76941 0.33752 1.7374 0.75 2.1562 0.41248 0.41888 0.8844-0.20483 1.0625-1.375s-1.3278-5.1492-3.3438-8.8438c-2.766-5.0692-4.3484-7.5731-4.5938-7.4688zm55.625 2.4375c-1.1-0.016174-2.9 0.33978-4 0.8125-2.5482 1.095 0.080811 1.095 3.5 0 2.0098-0.64362 2.1078-0.78888 0.5-0.8125zm-7.9062 1.2812c-0.534-0.009583-1.309 0.069336-2.3438 0.21875-9.2827 1.3401-31.066 10.155-31.969 12.938-0.46643 1.4377 6.1733 1.028 10.219-0.625 4.1101-1.6794 11.477-3.7936 21-6.0625l8-1.9062-6.875 0.5625c-3.7651 0.32214-9.8167 1.4248-13.469 2.4375-3.652 1.0127-6.7712 1.6976-6.9375 1.5312-0.58423-0.58423 12.336-5.4425 17.531-6.5938 4.985-1.1047 7.1576-2.4584 4.8438-2.5zm-90.344 1.1562c0.29056-0.049316 0.56928 0.13196 0.8125 0.5625 0.51813 0.91705 3.3019 3.3555 6.1875 5.4375 6.5163 4.7017 9.4514 7.6638 13.531 13.594 3.8308 5.5678 4.049 9.0448 0.75 12.344-7.8541 7.8541-24.458-5.1728-24.75-19.406-0.11627-5.6771 1.8998-12.265 3.4688-12.531zm108.75 2.5c-0.45312 0-0.90625 0.080017-1.25 0.21875-0.6875 0.2774-0.125 0.5 1.25 0.5s1.9375-0.2226 1.25-0.5c-0.34375-0.13873-0.79688-0.21875-1.25-0.21875zm-19 5c-0.45312 0-0.90625 0.080017-1.25 0.21875-0.6875 0.2774-0.125 0.5 1.25 0.5s1.9375-0.2226 1.25-0.5c-0.34375-0.13873-0.79688-0.21875-1.25-0.21875zm-6.9375 2c0.34741-0.014282 0.7641 0.043091 1.125 0.1875 0.79773 0.31921 0.53992 0.57703-0.625 0.625-1.0541 0.043396-1.6448-0.19898-1.3125-0.53125 0.16614-0.16614 0.46509-0.26697 0.8125-0.28125zm-46.906 10.312c0.34424-0.092163 1.1616 0.20172 2.0938 0.8125 5.1611 3.3817 25.989 5.1346 32.344 2.7188 3.4244-1.3019 3.8889-0.78003 6.7812 7.125 1.2928 3.5332 3.7386 9.3312 5.4062 12.906l3.0312 6.5-4.1562 1.9375c-4.8191 2.2341-18.724 3.0636-25.281 1.5-3.4589-0.82477-4.4033-1.629-5.9375-5.0312-1.0032-2.2248-4.6526-9.2788-8.125-15.688-3.4724-6.4088-6.3125-12.075-6.3125-12.562 0-0.12183 0.041504-0.18805 0.15625-0.21875zm217.88 5.125c8.8909-0.069641 12.298 1.6384 14.656 7.2812 1.3462 3.222 1.3881 13.393 0.0625 14.719-0.19678 0.19672-3.274-0.096008-6.8438-0.6875-5.3093-0.87976-7.6324-0.78778-12.781 0.53125-7.9484 2.0363-7.1309 2.121-12-1.4062-5.0599-3.6654-5.5417-7.4803-1.5938-12.656 4.0851-5.3559 9.6899-7.7123 18.5-7.7812zm-226.88 6.6562c1.3066 0.02478 2.6025 1.5285 5.125 4.875 3.0903 4.0998 3.3805 6.5119 1.1562 9.6875-1.2627 1.8028-2.443 2.2042-6.25 2.0938-6.8661-0.19922-9.3238-0.8078-12.688-3.1875-3.9921-2.8243-8.2337-7.5055-8.8125-9.7188-0.43597-1.6672-0.27692-1.6636 2.6562 0.125 1.8132 1.1056 4.9834 1.9042 7.5 1.9062 3.592 0.003113 4.9266-0.55164 7.6562-3.2812 1.6234-1.6234 2.64-2.5193 3.6562-2.5zm229.5 16.812c0.93304-0.010681 1.9463-0.003235 3.0625 0 10.19 0.029785 10.847 0.16443 12.5 2.4375 1.9962 2.7456 2.5277 7.353 1.4375 12.781-0.58057 2.8906-0.44244 3.75 0.625 3.75 2.0673 0 3.7347 4.55 3.0312 8.25-1.3142 6.9122-5.0136 11.406-11.688 14.156-4.2219 1.74-5.0919 1.7975-11.344 0.5625-5.7581-1.1374-8.0099-2.5121-9.7812-5.9375-2.2307-4.3137-1.8624-6.8862 1.4375-9.9688 3.7036-3.4597 9.6069-5.1469 18.844-5.375 3.9582-0.097717 7.1825-0.52502 7.1875-0.9375 0.016113-1.3054-18.299-0.71246-22.312 0.71875-3.3555 1.1966-4.1636 1.1493-6.6562-0.28125-2.8929-1.6603-6-6.8409-6-10 0-2.9089 2.6776-5.8251 7.4375-8.0625 3.2816-1.5425 5.6874-2.0188 12.219-2.0938zm-242.06 0.2188c0.36346-0.052429 0.90814 0.026306 1.6562 0.28125 4.1589 1.4174 15.476 1.7048 17.844 0.4375 1.9947-1.0675 2.533-0.92194 4.5625 1.4375 2.7307 3.1747 3.7623 6.6822 2.9375 9.9688-1.0826 4.3132-7.5557 3.9618-16.5-0.90625-6.7841-3.6923-13.044-10.852-10.5-11.219zm72.312 5.0312c0.62964-0.088928 1.0938 0.12891 1.0938 0.5625 0 0.56934-2.5168 1.9542-5.5625 3.0938-4.0334 1.5091-7.7682 2.0462-13.75 2-8.8737-0.068481-11.478-0.73248-13.75-3.5-1.3527-1.6481-1.2455-1.726 1.0625-1.0312 7.1437 2.1502 23.612 1.6409 30.25-0.9375 0.24438-0.09491 0.44635-0.15784 0.65625-0.1875zm2.4062 3.9375c0.0448-0.002869 0.087585 0.013794 0.09375 0.03125 0.049316 0.13989 4.452 9.025 9.7812 19.75 5.3293 10.725 12.16 25.195 15.188 32.156 5.9188 13.612 15.213 32.374 18.594 37.5l2.0938 3.1562-5.0938 1.0938c-6.8259 1.4639-15.636 1.324-20.312-0.34375-2.1034-0.75012-3.9445-1.5305-4.0938-1.7188-0.14917-0.18823-3.5518-6.4188-7.5625-13.844-4.0107-7.425-9.6534-17.775-12.531-23-2.8779-5.225-7.6294-14.225-10.562-20-2.9331-5.775-7.9648-15.149-11.188-20.844-3.2227-5.6947-5.6925-10.526-5.5-10.719 0.1925-0.19257 3.171 0.07428 6.625 0.5625 6.9411 0.98114 16.815-0.20355 21.562-2.5625 1.4016-0.69641 2.5927-1.1988 2.9062-1.2188zm223.53 28.875c0.069214-0.00531 0.12183-0.012207 0.1875 0 0.52545 0.097717 0.94025 0.75305 1.25 1.9375 0.60638 2.3187 0.005066 2.7058-12.281 8.25-4.6605 2.1031-12.398 4.7073-17.219 5.7812-12.829 2.8577-12.415 2.9755-13.688-4.25-0.59912-3.4013-0.86627-6.3837-0.625-6.625 0.24133-0.24127 3.3695 0.36951 6.9688 1.3438 11.485 3.1089 29.013 0.46289 33.625-5.0938 0.70886-0.85413 1.297-1.3068 1.7812-1.3438zm-303.16 6.0312c-1.173-0.002869-2.3377 0.092957-3.4688 0.28125 1.2914 0.067627 2.5835 0.1264 3.875 0.1875 0.15448-0.15643 0.30859-0.28809 0.46875-0.4375-0.28995-0.013-0.58462-0.030518-0.875-0.03125zm305.28 3.0312c0.38672-0.02179 0.62158 0.030273 0.71875 0.1875 0.34662 0.56079 0.84149 5.6718 1.0938 11.344 0.6543 14.713-1.7788 25.994-8.375 38.875-3.6784 7.1827-3.6564 7.1532-0.25 23.906 1.709 8.4049 6.1647 26.569 8.375 34.125 0.54694 1.8696-0.28021 2.4062-7.7188 4.9375-7.3824 2.5122-9.9549 2.8741-22.812 3.125-10.378 0.20252-17.813-0.25256-26.094-1.5625-11.958-1.8917-30.408-7.2621-32.75-9.5312-0.73352-0.71082-1.5767-3.9532-1.875-7.1875-0.29834-3.2343-1.0685-9.25-1.6875-13.375l-1.125-7.5-4-1.1562c-2.1991-0.63946-7.0205-1.8564-10.75-2.7188-8.8612-2.049-18.008-5.7559-27.531-11.156-6.7668-3.8373-14.469-9.4688-12.969-9.4688 3.9432 0 83.642-7.3408 102.12-9.4062 2.1166-0.23651 4.8952-1.411 6.1875-2.625 2.7514-2.5848 2.714-4.4473-0.40625-16.969-2.2141-8.8851-2.6406-12.97-1.375-13.031 11.959-0.57471 24.414-3.6041 34.531-8.4062 3.1423-1.4915 5.5273-2.3409 6.6875-2.4062zm-346.5 33.625c0.041931 0.10834 0.11151 0.20532 0.15625 0.3125 0.029266-0.054749 0.063934-0.10175 0.09375-0.15625-0.082794-0.05249-0.16791-0.10254-0.25-0.15625zm214.03 34.219c0.29065 0 3.1251 1.313 6.2812 2.9062 7.0714 3.5696 21.475 8.0534 26.938 8.375 4.5668 0.26886 4.3701-0.27533 5.875 16.312l0.6562 7.0625-9.875 1.8125c-14.813 2.7149-19.946 2.82-27.125 0.5-3.4375-1.1109-6.2607-2.5825-6.25-3.25 0.010742-0.66754 0.67188-5.7188 1.4688-11.219 0.79688-5.5 1.4514-12.812 1.4688-16.25 0.017456-3.4375 0.27185-6.25 0.5625-6.25zm-10.781 34.75c0.388-0.014709 0.72333-0.00354 1.0312 0 1.8475 0.021301 2.3173 0.49341 2.6562 1.8438 0.28809 1.1478 1.1124 2.1222 1.8125 2.1562 0.70007 0.034058 3.8638 1.1404 7.0312 2.4688l5.75 2.4062-3.5312 1.6875c-4.57 2.1793-4.3738 2.2142-8.4688-1.4062-1.925-1.702-5.4569-4.3663-7.8125-5.9062l-4.2812-2.7812 4.5-0.375c0.48383-0.038452 0.9245-0.079041 1.3125-0.09375zm-12.312 1.25c4.7059 0 9.2524 2.7758 15.594 9.4688 3.3859 3.5737 3.4092 3.7415 1.5312 5.125-2.5489 1.8778-2.5454 1.8647-6.0312-1.375-1.65-1.5335-6.0344-4.7754-9.7188-7.1875-3.6843-2.4121-6.4668-4.7356-6.1875-5.1875s2.4525-0.84375 4.8125-0.84375zm-10.562 1.625c1.9282-6.1e-4 3.4689 0.74121 6.6875 2.8438 2.7715 1.8105 7.4965 5.5593 10.5 8.3438l5.4688 5.0625-2.9062 2.8125c-1.587 1.5495-2.5597 2.2222-2.1562 1.5 0.95856-1.7159-5.4385-7.6182-15.656-14.438l-7.875-5.25 3.7812-0.6562c0.80536-0.143 1.5136-0.21857 2.1562-0.21875zm-7.8125 1.3125l6.2188 4.4688c6.8603 4.9062 15.75 13.058 15.75 14.469 0 0.49512-1.0125 1.1684-2.25 1.5-3.6776 0.9856-5.4558 0.71649-6.9062-1.0312-2.2259-2.6821-11.909-9.568-18.25-12.969l-5.875-3.1562 5.6562-1.625 5.6562-1.6562zm80.219 0.75c0.49512-0.018005 1.6594 0.43774 3 1.1875 1.7875 0.9997 7.525 3.3289 12.75 5.1875 9.6438 3.4305 16.086 8.0359 21.156 15.156l1.9688 2.7812-4.8125-0.0312c-4.0548-0.04657-5.1669-0.50934-7.0312-2.875-2.5583-3.2462-20.805-17.45-24.688-19.219-1.4398-0.65601-2.5938-1.5477-2.5938-2 0-0.1131 0.084961-0.18152 0.25-0.1875zm-10.469 0.7812c2.3433-0.11163 4.1473 0.43072 7.625 1.9688 7.0228 3.1058 16.394 9.7718 25.281 18 6.5663 6.0794 7.2822 6.464 13.125 7.125 4.4706 0.5058 6.1875 0.38452 6.1875-0.46875 0-2.3142-3.2999-7.6616-7.375-11.969l-4.125-4.375 3 0.7188c1.65 0.39313 8.51 1.0413 15.25 1.4375 11.875 0.69812 12.355 0.80444 15.5 3.7812 6.0634 5.7389 10.506 6.6434 18.906 3.7812 5.6416-1.9223 8.7205-4.7275 9.5-8.625 0.37073-1.8536 1.4828-3.3144 2.875-3.8438 1.24-0.47144 2.4821-1.4645 2.7812-2.1875 0.83374-2.0147 7.3712 5.929 9.1562 11.125 0.83508 2.4308 1.3859 4.5109 1.25 4.625-1.4619 1.2277-9.6406 4.6523-15.219 6.375-16.833 5.1984-39.91 8.9313-71 11.5-36.587 3.023-32.87 3.34-36.031-2.75-3.7518-7.2282-12.187-16.425-18.5-20.125-3.3482-1.9623-6.8482-3.5575-7.7812-3.5625-0.93445-0.005188 0.20904-1.152 2.5625-2.5625 3.8318-2.2965 4.6368-2.4544 7.8125-1.4062 5.664 1.8693 17.383 10.278 24.281 17.406l6.375 6.5625h16.812l-1.5938-3.0938c-3.4454-6.6627-16.634-18.244-28.938-25.406l-5-2.9062 4.6875-0.8125c0.98132-0.16797 1.8126-0.27527 2.5938-0.3125zm-179.09 0.2188c-0.041016 0.023987-0.083313 0.041077-0.125 0.0625-0.017944 0.034851-0.040955 0.057922-0.0625 0.09375 0.065552-0.060242 0.11548-0.090698 0.1875-0.15625zm170.06 1.5312l5.875 3.7188c6.8298 4.3184 24.375 20.645 24.375 22.688 0 0.76251-0.78748 1.3982-1.75 1.4062-0.96252 0.007507-2.65 0.22968-3.75 0.5-1.496 0.36762-4.2682-1.7274-11-8.2812-6.1484-5.9859-11.139-9.8386-15.75-12.156-3.7125-1.8659-6.75-3.709-6.75-4.125 0-0.41602 1.9679-1.4298 4.375-2.25l4.375-1.5zm-192.41 1.0312c-0.005981 0.002014 0.025146 0.03186 0.03125 0.03125 0.015106-0.007324 0.015167-0.03479 0.03125-0.03125-0.025452 0.007507-0.023346-0.015625-0.0625 0zm119.72 0.1562c0.22125 0.002625 0.40466 0.022888 0.5625 0.0625 3.5532 0.89178 16.808 10.196 20.781 14.594 3.8791 4.2937 4.7676 4.5781 10.906 3.4062l3.8125-0.75-2.625 3.875c-1.4443 2.1283-3.1581 4.2089-3.8125 4.625-0.65442 0.41608-4.1996 0.77325-7.875 0.78125-5.8381 0.013367-6.7825-0.23175-7.3438-2-1.0377-3.2695-11.182-13.6-15.25-15.531-2.0603-0.97821-5.7437-2.3144-8.2188-2.9688l-4.5-1.2188 5.9688-2.6875c3.0402-1.3678 6.0448-2.206 7.5938-2.1875zm-183.28 3.7188c-0.12799 0.01416-0.35464 0.16321-0.6875 0.46875-0.65091 0.59747-1.4542 2.735-1.7812 4.75-0.3909 2.4089-0.21231 3.6562 0.53125 3.6562 0.62195 0 1.1562-1.3013 1.1562-2.9062 0-1.605 0.26904-3.7425 0.625-4.75 0.30338-0.85864 0.36957-1.2423 0.15625-1.2188zm435.31 0.9688c-1.3816-0.040894-3.6299 0.48517-7.0625 1.5938l-5.1875 1.6875 3.3125 1.1875c2.9651 1.0836 8.0476 0.98554 10.094-0.21875 0.41248-0.2428 0.75-1.3387 0.75-2.4062 0-1.2102-0.52466-1.8029-1.9062-1.8438zm-18.062 1.9062c-1.0676 0-2.1913 0.45001-2.5312 1s-1.6075 1.0168-2.8125 1.0312c-1.6215 0.019409-1.1479 0.51752 1.8125 1.875 4.6384 2.127 5.5 1.8774 5.5-1.4688 0-1.7496-0.57758-2.4375-1.9688-2.4375zm-248.34 0.0312c3.8987-0.03125 12.84 3.8814 17.031 7.4688 2.2359 1.9138 5.6612 5.9164 7.625 8.875 3.4989 5.2712 3.6835 5.3802 9.4375 6.0312 3.2295 0.36536 6.7086 0.35638 7.7188-0.03125 1.5256-0.58545 1.694-0.37909 1 1.2188-0.45947 1.058-1.0375 3.5938-1.2812 5.6562l-0.4375 3.75-6.6562 0.0938c-12.772 0.17078-16.279-0.25067-21.719-2.6562-3.0137-1.3328-6.1282-2.4375-6.9375-2.4375-1.7713 0-1.9577 3.136-0.28125 4.8125 1.434 1.434 1.8583 1.4994-6.1875-1.0312-8.2434-2.5928-12.279-4.5495-16.594-8.0938-4.055-3.3308-4.3228-6.0266-1.1562-10.719 2.7284-4.0428 15.364-12.913 18.438-12.938zm195.91 0.1875c2.6456-0.045715 1.5647 2.6649-2.625 5.4375-5.788 3.8303-12.302 4.204-17.469 1-4.5861-2.844-5.0845-2.6027 8.5-4.5312 4.125-0.58563 8.7375-1.3303 10.25-1.6875 0.53253-0.12573 0.96582-0.21222 1.3438-0.21875zm-373.41 0.0312c-0.19006 0.0755-0.1875 0.68903-0.1875 1.9062 0 1.3885 0.28958 2.8209 0.65625 3.1875 2.3793 2.3793 3.0335-0.80347 0.78125-3.7812-0.70789-0.93591-1.0599-1.388-1.25-1.3125zm412.31 1.75c-1.8082 0-1.9457 1.1793-0.3125 2.8125 1.6138 1.6138 1.8125 1.5185 1.8125-0.8125 0-1.1111-0.66669-2-1.5-2zm-170.88 3.0312c3.7739-0.010376 12.429 5.6317 17.562 11.469 3.9728 4.5173 10.446 15.485 9.1562 15.531-0.46497 0.016724-0.16876 0.38696 0.65625 0.8125 1.5729 0.81128 40.475-0.1593 52.438-1.3125l6.9375-0.6875-5.3438 4.8438c-6.7632 6.0986-12.585 7.3269-16.875 3.5938-5.4165-4.7133-10.699-3.9186-8.3438 1.25 0.64508 1.4158 1.1875 2.7821 1.1875 3.0312 0 0.84582-1.491 0.26971-5.5-2.125-4.5696-2.7296-7.5-3.0936-7.5-0.9375 0 2.3881-3.9679 2.748-23.281 2.2188-12.845-0.35199-20.735-1.0498-26.719-2.4062-10.324-2.3402-12.794-3.5956-13.625-6.9062-2.0721-8.256 11.56-28.354 19.25-28.375zm-119.03 6.9688c-3.527 0-5.2294 1.201-4.1562 2.9375 0.64526 1.0441 6.1699-0.53644 7.0938-2.0312 0.30646-0.49585-1.0125-0.90625-2.9375-0.90625zm16.875 0.0625c-0.76941 0.02887-1.8267 0.16272-3.125 0.40625-2.8571 0.53595-3.2784 0.90503-2.3438 2.0312 0.97662 1.1768 1.6862 1.1351 4.6562-0.28125 2.9931-1.4273 3.1208-2.2428 0.8125-2.1562zm7.5938 3.0625c0.34741-0.014282 0.7641 0.043091 1.125 0.1875 0.79773 0.31921 0.53992 0.57703-0.625 0.625-1.0541 0.043396-1.6448-0.19898-1.3125-0.53125 0.16614-0.16614 0.46509-0.26697 0.8125-0.28125zm-3.5625 0.875c0.82501 0 1.5 0.19012 1.5 0.40625 0 0.21619-0.67499 0.65216-1.5 0.96875s-1.5 0.12646-1.5-0.40625c0-0.53272 0.67499-0.96875 1.5-0.96875zm8.5625 1.125c0.34741-0.014282 0.7641 0.043091 1.125 0.1875 0.79773 0.31921 0.53992 0.57703-0.625 0.625-1.0541 0.043396-1.6448-0.19898-1.3125-0.53125 0.16614-0.16614 0.46509-0.26697 0.8125-0.28125zm238.84 1.0312c1.7925 0.017944 1.339 1.482-0.3125 4.6562-2.0534 3.9465-5.4706 6.7865-10.938 9.125-6.089 2.6047-7.4895 2.6095-5.1562 0.03125 1.7181-1.8985 1.7507-2.1243 0.1875-3.6875s-2.1509-1.5292-8.9375 0.46875c-3.9934 1.1757-8.15 2.4608-9.25 2.875-1.6935 0.63782-1.8195 0.52948-0.78125-0.75 0.85864-1.0581 0.89362-1.8251 0.15625-2.5625-0.73737-0.73737 1.5756-1.5538 7.6875-2.6875 4.8005-0.8905 13.146-3.1522 18.562-5.0312 4.6102-1.5992 7.3871-2.4515 8.7812-2.4375zm-46.094 10.938c0.28784-0.0177 0.51221-0.014038 0.6875 0 1.1688 0.093567-0.15387 0.89789-3.9375 2.4688-7.0886 2.9429-6.9023 2.9221-5.6562 0.59375 0.57776-1.0796 2.5861-2.1372 4.7812-2.5 1.884-0.31134 3.2616-0.50946 4.125-0.5625zm-263.56 1.0625c-0.19196-9.16e-4 -0.40973 0.013123-0.625 0.03125-6.4587 0.54456-21.625 8.041-21.625 10.969 0 1.3499 0.89459 1.0058 4.3438-1.625 3.6352-2.7726 12.615-6.881 17.156-7.875l3-0.6562-3.4688 3c-1.9042 1.6544-4.0417 3-4.75 3-0.72107 0-1.2812 1.1653-1.2812 2.625 0 2.1005 0.34 2.4451 1.75 1.8438 3.705-1.5801 21.14-6.1079 20.688-5.375-0.26251 0.42474-1.8251 1.0452-3.4688 1.4062-1.96 0.43048-2.9688 1.2953-2.9688 2.4688 0 1.6685 0.38824 1.6992 5.75 0.4375 3.1625-0.7442 8.0985-1.366 10.969-1.375 4.2318-0.012695 5.0917 0.25238 4.625 1.4688-0.70874 1.8469 3.3263 2.0631 7.0312 0.375 1.989-0.90625 2.2464-1.436 1.4062-2.7812-0.88611-1.4188-2.4065-1.6116-9.9688-1.25-4.9084 0.23468-8.8379 0.012146-8.75-0.46875 0.60132-3.2889-0.091553-3.6629-5.8125-3.0312-3.1625 0.34918-6.6957 0.8988-7.8438 1.2188-1.6983 0.47327-2.0711 0.17212-2-1.7188 0.07428-1.9764-0.48511-2.3953-3.625-2.6562-0.1731-0.014404-0.33929-0.030334-0.53125-0.03125zm76.281 5.875c-0.76569-0.007263-1.6177 0.27582-1.9688 0.84375-0.29248 0.47327-0.25134 1.1237 0.0625 1.4375 0.7804 0.7804 3.375-0.30249 3.375-1.4062 0-0.57129-0.70306-0.86774-1.4688-0.875zm50.562 2.0938c-0.54376 0.006714-1.0364 0.081787-1.375 0.21875-0.677 0.27393 0.13129 0.48914 1.7812 0.46875 1.65-0.020386 2.1917-0.24646 1.2188-0.5-0.48645-0.12677-1.0812-0.19421-1.625-0.1875zm-61.688 0.0312c-0.40894 0.029968-0.91266 0.095032-1.5312 0.21875-1.7188 0.34375-3.6312 0.68488-4.25 0.75-0.61871 0.065063 0.22504 0.45514 1.875 0.875 4.7173 1.2004 5.5 1.1114 5.5-0.625 0-0.96503-0.36688-1.3087-1.5938-1.2188zm-12.594 0.1875c-2.502-0.13501-7.2018 1.2617-7.5938 2.4375-0.28619 0.8587 1.1222 1.2188 4.6875 1.2188 3.8982 0 5.0938-0.35693 5.0938-1.5312 0-0.84228-0.5625-1.7298-1.25-1.9688-0.2489-0.086548-0.58008-0.13696-0.9375-0.15625zm-83.156 1.7188c-0.9209 0.026245-2.1039 0.21173-3.5312 0.59375l-2.375 0.6562 2.25 1.2188c2.6948 1.4422 6 0.82812 6-1.125 0-0.92865-0.8089-1.3875-2.3438-1.3438zm-13.75 0.375c-0.079315 0.003784-0.1702 0.03833-0.25 0.0625-0.64197 0.19434-2.3937 0.60608-3.9062 0.9375s-2.75 1.0543-2.75 1.5938c0 1.0485 7.248 1.377 8.25 0.375 0.90216-0.90216-0.15418-3.0259-1.3438-2.9688zm395.75 0.5625c-2.0167 0-3.6562 0.4325-3.6562 0.96875 0 0.56024 1.3826 0.73047 3.25 0.375 4.5573-0.86749 4.692-1.3438 0.40625-1.3438z"/>
 </g>
</svg>
